<svg width="94" height="59" viewBox="0 0 94 59" fill="none" xmlns="http://www.w3.org/2000/svg">
<g id="Group 387">
<g id="Group 88">
<g id="&#208;&#161;&#208;&#187;&#208;&#190;&#208;&#185;_x0020_1">
<path id="Vector" fill-rule="evenodd" clip-rule="evenodd" d="M55.2279 36.5541L74.5585 51.0026L93.997 36.4868L93.9999 39.1243L74.5585 53.6292L55.2251 39.1899L55.2279 36.5541Z" fill="#2EA2D6"/>
<path id="Vector_2" fill-rule="evenodd" clip-rule="evenodd" d="M55.2265 39.1902L74.557 53.6386L93.9957 39.123L93.9985 41.7604L74.557 56.2655L55.2236 41.826L55.2265 39.1902Z" fill="#007030"/>
<path id="Vector_3" fill-rule="evenodd" clip-rule="evenodd" d="M55.2225 41.826L74.5531 56.2745L93.9919 41.7588L93.9946 44.3962L74.5531 58.9013L55.2197 44.4618L55.2225 41.826Z" fill="#FF0000"/>
<path id="Vector_4" fill-rule="evenodd" clip-rule="evenodd" d="M55.7472 27.09L55.2271 26.7012V27.4787V28.4636V29.2411V30.226V31.0034V31.9884V32.7659V33.7508L55.7472 34.1394L56.6629 34.8239V33.455V33.0615V31.6926V31.2992L56.9261 31.4959L58.0987 32.3723L58.105 32.3771L58.0987 32.3819V34.1347L58.105 34.1394L58.0987 34.1442V35.8972L58.105 35.9019L59.2841 36.7832L59.5345 36.9703V36.596V35.2079V34.8335V33.4455V33.0711V31.6832L59.2841 31.496L58.105 30.6148L59.2841 29.7337L58.105 28.8524L58.0987 28.8572L56.9261 29.7337L56.6629 29.9302V29.5368V28.1679V27.7744L55.7472 27.09V27.09ZM58.0987 30.6194V30.6099L58.105 30.6147L58.0987 30.6195V30.6194Z" fill="#003466"/>
<path id="Vector_5" fill-rule="evenodd" clip-rule="evenodd" d="M60.9702 30.9941V31.998V32.7565V33.7605V34.5189V35.5229V36.2812V37.2852V38.0436L61.6418 38.5457L62.406 39.1168V37.9745V37.3544L62.8208 37.6645L63.8418 38.4276V38.6637V40.19L63.9998 40.308L65.1787 41.1892L65.2776 41.2632V41.1153V39.5007V39.3529V37.7384V37.5906V35.976V35.8282V34.2136L65.1787 34.1396L63.9998 33.2585L63.8418 33.1405L62.8208 32.3773L62.406 32.0673L61.6418 31.4961L60.9702 30.9941ZM63.8418 34.9028V35.139V36.6652L62.8208 35.902L62.406 35.592V34.4497V33.8296L62.8208 34.1396L63.8418 34.9028Z" fill="#003466"/>
<path id="Vector_6" fill-rule="evenodd" clip-rule="evenodd" d="M66.7134 35.2866V36.5172V37.0491V38.2796V38.8115V40.042V40.5738V41.8043V42.3362L67.5365 42.9515L68.1491 43.4094V42.4937V41.647L68.7155 42.0704L69.585 42.7202L69.8944 42.9515L71.0207 43.7934V42.1097V42.0309V40.3473V40.2686V38.5849V38.5062L69.8944 37.6644L69.585 37.433L68.7155 36.7832L68.1491 36.3598L67.5365 35.902L66.7134 35.2866ZM68.7155 40.3079L68.1491 39.8846V38.9688V38.1222L68.7155 38.5456L69.585 39.1954V39.658V40.9577L68.7155 40.3079Z" fill="#003466"/>
<path id="Vector_7" fill-rule="evenodd" clip-rule="evenodd" d="M72.4565 39.5793V41.0363V41.3415V42.7986V43.1039V44.561V44.8662V46.3233V46.6285L73.4315 47.357L73.8924 47.7017L74.6103 48.2382L75.3283 47.7017L75.7892 47.357L76.764 46.6285V46.3233V44.8662V44.561L75.7892 43.8324L75.3283 43.4878L74.6103 42.9512L73.8924 43.4878V42.4146V41.7253V40.6523L73.4315 40.3076L72.4565 39.5791V39.5793ZM74.6103 44.7137L75.3283 45.2502V45.9395L74.6103 46.476L73.8924 45.9395V45.2502L74.6103 44.7137Z" fill="#003466"/>
<path id="Vector_8" fill-rule="evenodd" clip-rule="evenodd" d="M78.1992 43.8725V45.5562L79.3255 44.7143L79.6351 44.483L80.5045 43.8331L81.0708 43.4098L81.6835 42.9519L82.5067 42.3367V41.8048V40.5743L81.6835 41.1896L81.0708 41.6474L80.5045 42.0708L79.6351 42.7206V41.6693L79.6891 41.6021L79.76 41.5142L80.6455 40.4137L81.0707 39.8852L79.6851 39.6958L79.6351 39.6585V39.1959L80.5045 38.5461L81.0708 38.1227L81.6835 37.6648L82.5067 37.0495V36.5176V35.2871L81.6835 35.9024L81.0708 36.3603L80.5045 36.7836L79.6351 37.4334L79.3255 37.6648L78.1992 38.5066V38.5853V40.269V40.3477V42.0313V42.1101V43.7938V43.8725Z" fill="#003466"/>
<path id="Vector_9" fill-rule="evenodd" clip-rule="evenodd" d="M83.9424 34.2136V35.8282V35.976V37.5906V37.7384V39.3529V39.5008V41.1153V41.2632L84.0414 41.1892L85.2203 40.308L85.3782 40.19V38.6637V38.4276L86.3992 37.6645L86.814 37.3544L87.5782 36.7833L88.2499 36.2812V35.5229V34.5189V33.7605V32.7565V31.998V30.9941L87.5782 31.4961L86.814 32.0673L86.3992 32.3773L85.3782 33.1405L85.2203 33.2585L84.0414 34.1396L83.9424 34.2136ZM85.3782 35.139V34.9028L86.3992 34.1396L86.814 33.8296V34.4497V35.5921L86.3992 35.9021L85.3782 36.6653V35.139Z" fill="#003466"/>
<path id="Vector_10" fill-rule="evenodd" clip-rule="evenodd" d="M91.1149 30.6148L92.2939 29.7337L92.5572 29.5369V29.9303V31.2993L92.2939 31.496L91.1213 32.3724L91.1149 30.6148ZM89.6855 36.5959V36.9703L89.936 36.7831L91.115 35.9019L91.1214 35.8971V34.1442L92.2939 33.2583L92.5572 33.0615V33.455V34.8239L93.4729 34.1394L93.993 33.7508V32.7659V31.9884V31.0034V30.226V29.2411V28.4636V27.4787V26.7012L93.4729 27.09L92.5572 27.7743L92.2939 27.9711L91.1214 28.8474L89.9361 29.7335L89.6856 29.9206V31.3087V31.683V33.071V33.4453V34.8334V35.2078V36.5959L89.6855 36.5959Z" fill="#003466"/>
<path id="Vector_11" fill-rule="evenodd" clip-rule="evenodd" d="M69.3233 24.8814V28.3701V30.6325V34.4874L72.0308 36.5112L72.8476 37.1216L74.6289 38.453L76.3717 37.1503L77.2076 36.5256L79.896 34.5162V31.8733V30.6325V28.3773V24.8814V20.4676V16.9789V15.1013V6.44238H76.3717H75.1536H72.8475H70.4763H69.3232V7.19883L69.3937 7.25161L69.3232 7.30427V10.8002V16.9789V20.4748V23.9709V24.8814H69.3233ZM72.8476 33.2666V31.5043V27.9796V26.6049V25.7358V24.455V23.109V22.2472V20.9302V19.6131V11.15L74.6096 12.4672L75.4907 11.8086L76.3718 11.15V12.4672V19.6133V20.9303V22.2473V23.102V24.4551V25.7433V27.9797V29.2392V31.5044V33.2668L74.6096 34.584L72.8476 33.2668V33.2666Z" fill="#2EA2D6"/>
<path id="Vector_12" fill-rule="evenodd" clip-rule="evenodd" d="M58.7513 6.44238H55.2271V9.93829V9.96713V13.4343V13.463V16.9303V16.9591V17.8409V20.0959V20.4262V20.455V21.3368V23.951L58.7513 26.5851V22.7301V18.7027V16.0684V15.2067V12.5725V11.15L60.4297 12.4672L62.2755 11.15V11.7107V12.5725V15.2066V16.0685V18.7027V25.3643V29.2192L62.898 29.6845L65.2317 31.4288L65.7998 31.8533V31.0042V27.9983V27.5155V21.3368V17.8408V14.3449V13.4344V9.93841V6.44238H62.2755L60.5134 7.75945L58.7513 6.44238Z" fill="#003466"/>
<path id="Vector_13" fill-rule="evenodd" clip-rule="evenodd" d="M86.9456 15.1995V11.7108V10.3835H90.4699V12.5653V16.0972H86.9456V15.1995ZM86.9456 20.9533L88.8767 19.6219H90.4699V22.7301V24.8226V26.6139L91.6682 25.7183L93.994 23.9798V20.455V20.096V16.9878V13.4918V9.96713V6.44238H90.4699H86.9455H83.4214V14.3449V16.0972L85.8497 17.9588L83.4214 19.6219V23.0038V24.8903V27.5156V27.9983V31.0116V31.8822L84.0038 31.4468L86.3423 29.6988L86.9455 29.248V25.3643V20.9533H86.9456Z" fill="#003466"/>
</g>
</g>
<g id="Group 89">
<g id="&#208;&#161;&#208;&#187;&#208;&#190;&#208;&#185;_x0020_1_2">
<g id="_1813732314128">
<path id="Vector_14" fill-rule="evenodd" clip-rule="evenodd" d="M41.3516 13.3264C36.5256 8.63565 31.5901 5.64638 26.5361 4.38818C26.5657 4.62894 26.5825 4.8737 26.5825 5.12283C26.5825 5.73085 26.4897 6.32197 26.325 6.87505C30.5218 8.00236 34.706 10.4723 38.8985 14.3819L38.9323 30.2868L38.9365 31.376H38.9323V41.1208L20.7392 54.9145L2.49537 41.0743V31.376L2.45733 14.0273C6.67939 10.5737 10.834 8.2092 14.9463 7.03547C14.7395 6.43596 14.6296 5.79004 14.6296 5.12283C14.6296 4.93714 14.6381 4.75132 14.655 4.56975C9.87137 5.86599 4.98636 8.63152 0 12.8832L0.0633149 42.8223L20.6504 58.4188L41.4149 42.8223L41.3516 13.3264Z" fill="#293F66"/>
<path id="Vector_15" fill-rule="evenodd" clip-rule="evenodd" d="M20.7076 0.172363C23.4278 0.172363 25.6349 2.37772 25.6349 5.09799C25.6349 7.81671 23.4278 10.0237 20.7076 10.0237C17.9873 10.0237 15.7803 7.81671 15.7803 5.09799C15.7803 2.37772 17.9873 0.172363 20.7076 0.172363Z" fill="#293F66"/>
<path id="Vector_16" fill-rule="evenodd" clip-rule="evenodd" d="M20.7071 0.241211C23.3897 0.241211 25.5656 2.41549 25.5656 5.0981C25.5656 7.77904 23.3897 9.95487 20.7071 9.95487C18.0246 9.95487 15.8486 7.77904 15.8486 5.0981C15.8486 2.41549 18.0246 0.241211 20.7071 0.241211ZM20.7071 0.298724C18.0573 0.298724 15.906 2.44837 15.906 5.0981C15.906 7.74783 18.0573 9.89762 20.7071 9.89762C23.3568 9.89762 25.5081 7.74783 25.5081 5.0981C25.5081 2.44837 23.3568 0.298724 20.7071 0.298724Z" fill="#FEFEFE"/>
<path id="Vector_17" fill-rule="evenodd" clip-rule="evenodd" d="M20.6594 0C21.1627 0 21.571 0.410066 21.571 0.913371C21.571 1.4168 21.1627 1.82675 20.6594 1.82675C20.156 1.82675 19.7476 1.4168 19.7476 0.913371C19.7476 0.410066 20.156 0 20.6594 0Z" fill="#293F66"/>
<path id="Vector_18" fill-rule="evenodd" clip-rule="evenodd" d="M19.4673 8.61816C19.6214 9.08871 19.8148 9.6249 19.9706 10.0955C20.5183 10.3005 20.9873 10.2957 21.5972 10.0939C21.7629 9.63316 21.9562 9.07904 22.1202 8.61816C21.2266 8.92649 20.3609 8.95602 19.4673 8.61816Z" fill="#F1BC1C"/>
<path id="Vector_19" fill-rule="evenodd" clip-rule="evenodd" d="M20.6599 0.211426C21.0451 0.211426 21.36 0.5262 21.36 0.913188C21.36 1.30018 21.0451 1.61496 20.6599 1.61496C20.2729 1.61496 19.958 1.30018 19.958 0.913188C19.958 0.5262 20.2729 0.211426 20.6599 0.211426Z" fill="#F1BC1C"/>
<path id="Vector_20" fill-rule="evenodd" clip-rule="evenodd" d="M20.6735 1.61377C22.5903 1.61377 24.1447 3.16817 24.1447 5.08661C24.1447 7.00182 22.5903 8.5579 20.6735 8.5579C18.7551 8.5579 17.2007 7.00182 17.2007 5.08661C17.2007 3.16817 18.7551 1.61377 20.6735 1.61377Z" fill="#F1BC1C"/>
<path id="Vector_21" fill-rule="evenodd" clip-rule="evenodd" d="M20.6733 2.75146C21.9621 2.75146 23.0083 3.79586 23.0083 5.08629C23.0083 6.3735 21.9621 7.41957 20.6733 7.41957C19.3846 7.41957 18.3384 6.3735 18.3384 5.08629C18.3384 3.79586 19.3846 2.75146 20.6733 2.75146Z" fill="#293F66"/>
<path id="Vector_22" fill-rule="evenodd" clip-rule="evenodd" d="M19.6289 8.77246C19.7601 9.17428 19.9192 9.64496 20.052 10.0465C20.5406 10.1958 21.0228 10.1908 21.5014 10.0286C21.6425 9.63516 21.8081 9.16616 21.9475 8.77246C21.0734 9.0185 20.4275 9.02018 19.6289 8.77246Z" fill="#30407D"/>
<g id="Vector_23">
<path fill-rule="evenodd" clip-rule="evenodd" d="M17.6211 6.21765H18.7262L19.0032 6.06355H22.4451L22.7435 6.22087H23.6765C22.8746 5.51266 22.1466 4.83527 21.3449 4.12706C21.1726 4.01551 20.9235 4.08283 20.7282 4.28928C20.7627 4.32706 20.7939 4.35814 20.8266 4.3958C20.789 4.36304 20.7627 4.32539 20.7282 4.28928C20.4594 3.99075 20.2217 3.81873 19.9576 4.068L17.6211 6.21765Z" fill="#FEFEFE"/>
<path d="M20.7282 4.28928C20.9235 4.08283 21.1726 4.01551 21.3449 4.12706C22.1466 4.83527 22.8746 5.51266 23.6765 6.22087H22.7435L22.4451 6.06355H19.0032L18.7262 6.21765H17.6211L19.9576 4.068C20.2217 3.81873 20.4594 3.99075 20.7282 4.28928ZM20.7282 4.28928C20.7627 4.32706 20.7939 4.35814 20.8266 4.3958C20.789 4.36304 20.7627 4.32539 20.7282 4.28928Z" stroke="#30407D" stroke-width="0.288" stroke-miterlimit="22.9256" stroke-linejoin="round"/>
</g>
<path id="Vector_24" fill-rule="evenodd" clip-rule="evenodd" d="M19.771 8.91211C19.8892 9.27279 20.0072 9.62858 20.1269 9.98926C20.5664 10.091 20.9993 10.0846 21.4288 9.97301C21.5551 9.61877 21.6813 9.26621 21.8076 8.91211C21.1287 9.09729 20.4481 9.12682 19.771 8.91211Z" fill="#F1BC1C"/>
<path id="Vector_25" fill-rule="evenodd" clip-rule="evenodd" d="M20.66 0.362305C20.9632 0.362305 21.2094 0.609891 21.2094 0.913189C21.2094 1.21649 20.9632 1.46408 20.66 1.46408C20.3566 1.46408 20.1089 1.21649 20.1089 0.913189C20.1089 0.609891 20.3566 0.362305 20.66 0.362305Z" stroke="#30407D" stroke-width="0.576" stroke-miterlimit="22.9256"/>
<path id="Vector_26" fill-rule="evenodd" clip-rule="evenodd" d="M23.9674 7.97364C23.7836 8.17699 23.582 8.37545 23.359 8.56734C23.2245 8.6821 23.041 8.79017 22.8606 8.87386C22.7802 8.8411 22.7342 8.846 22.6556 8.79506C22.6341 8.69667 22.6506 8.57366 22.6589 8.47385C22.7982 8.3672 22.936 8.26223 23.0737 8.15572C23.0721 8.01787 23.0705 7.88014 23.0705 7.74242C23.9083 6.86515 24.3183 5.92728 24.215 4.93524C24.2051 4.64187 24.1542 4.34657 24.0592 4.04984C23.951 3.71534 23.8297 3.39722 23.6099 3.06103C23.4442 2.89056 23.2589 2.69532 23.1491 2.51014C23.077 2.3692 23.0967 2.22477 23.1491 2.11168C22.9129 1.98866 22.7588 1.82643 22.6982 1.6018C22.6753 1.52133 22.6851 1.51488 22.7507 1.48703C22.9475 1.40334 23.0015 1.33938 23.164 1.45247C23.4836 1.67878 23.7428 1.95088 23.9723 2.23303C24.0427 2.2445 24.1279 2.26255 24.2116 2.28228C24.4445 2.33632 24.574 2.38713 24.7002 2.58894C24.7495 2.66579 24.792 2.7478 24.8315 2.83149C24.979 3.1513 25.1349 3.50373 25.2546 3.87267C25.5054 4.76309 25.5235 5.57962 25.2202 6.45521C25.0349 6.98985 24.7986 7.48503 24.4641 7.93095C24.2297 7.98834 24.0641 8.00317 23.9674 7.97364Z" fill="#FEFEFE"/>
<path id="Vector_27" fill-rule="evenodd" clip-rule="evenodd" d="M24.0929 2.53349C24.0372 2.39409 23.9667 2.25805 23.8355 2.17281C23.419 1.90046 23.2664 1.96945 22.9058 1.64307C23.0992 2.01523 23.3206 2.18261 23.6338 2.32523C23.8421 2.42194 23.8009 2.34174 24.0929 2.53349Z" fill="#169A4C"/>
<path id="Vector_28" fill-rule="evenodd" clip-rule="evenodd" d="M23.4019 2.3252C23.7215 2.5399 23.9741 2.63997 24.1659 2.78608C24.3217 2.9385 24.3758 3.12535 24.4628 3.51905C24.0741 3.1483 23.6888 2.76634 23.4019 2.3252Z" fill="#169A4C"/>
<path id="Vector_29" fill-rule="evenodd" clip-rule="evenodd" d="M24.2686 2.37939C24.434 2.71545 24.5472 3.10411 24.5766 3.52875C24.5881 3.70091 24.6834 3.84688 24.7407 3.98138C24.8063 3.55493 24.8178 3.26157 24.7604 3.00418C24.7096 2.76793 24.4964 2.65484 24.2686 2.37939Z" fill="#169A4C"/>
<path id="Vector_30" fill-rule="evenodd" clip-rule="evenodd" d="M25.0266 6.11777C24.8578 6.28502 24.8103 6.46207 24.8184 6.64583C24.9889 6.48012 25.135 6.3424 25.307 6.17683C25.3595 5.98482 25.4005 5.74393 25.4267 5.53903C25.3989 5.44386 25.4022 5.34714 25.3333 5.30936C25.3185 5.29943 25.2972 5.29144 25.2858 5.30291C25.2645 5.32251 25.2203 5.32909 25.1906 5.33399C25.3021 5.15848 25.3251 4.9764 25.3185 4.7929C25.3153 4.62887 25.2743 4.41894 25.2383 4.25839C25.1906 4.0353 25.1005 3.82872 24.9939 3.63026C24.984 3.90093 24.9578 4.20088 24.894 4.55189C24.7856 3.95986 24.4282 3.60898 24.0281 3.30078C24.0182 3.5828 24.1018 3.94026 24.6906 4.59934C24.661 4.63545 24.661 4.63545 24.6315 4.67156C24.4446 4.49438 24.2856 4.28947 24.1724 4.11577C24.1806 4.50263 24.2592 4.90277 24.438 5.23237C24.4134 5.25687 24.3921 5.30781 24.3626 5.34057C24.3429 5.36184 24.3248 5.37164 24.2937 5.37332C24.2675 5.37332 24.2543 5.37164 24.2265 5.37164C24.22 5.5701 24.2363 5.84232 24.2002 5.96534C24.1839 6.24401 24.1675 6.52113 24.1594 6.79825C24.2428 6.65073 24.3445 6.50811 24.4233 6.35878C24.4478 6.24724 24.4397 6.13092 24.4183 6.02428C24.2577 5.95219 24.3331 5.79306 24.3363 5.63084C24.3298 5.48641 24.2592 5.51117 24.22 5.46849C24.3167 5.45533 24.3592 5.48989 24.3872 5.51774C24.4314 5.51117 24.4053 5.39292 24.4561 5.36184C24.4954 5.36687 24.5037 5.49634 24.5381 5.51285C24.5872 5.49789 24.6774 5.40607 24.7168 5.4111C24.6692 5.33399 24.6495 5.26667 24.6741 5.17653C24.6873 5.12908 24.6921 5.07995 24.6757 5.02244C24.6446 4.90935 24.5692 4.91089 24.5086 4.82888C24.6168 4.81585 24.7234 4.92405 24.7283 4.89619C24.7249 4.82566 24.7332 4.74686 24.7513 4.70431C24.7939 4.74041 24.8036 4.78143 24.8299 4.86821C24.8382 4.88317 24.8496 4.88961 24.8611 4.89451C24.8775 4.89129 24.8954 4.88149 24.8988 4.87001C24.9283 4.82075 25.0135 4.77652 25.0677 4.85041C24.9906 4.84371 24.9545 4.86344 24.948 4.95693C24.9595 5.1011 25.0201 5.36507 24.8431 5.44218C24.9119 5.44876 24.9529 5.47171 25.0201 5.54057C25.0939 5.49789 25.0971 5.44218 25.117 5.39963C25.125 5.39963 25.1333 5.3946 25.1382 5.3946C25.1497 5.40298 25.1563 5.4044 25.1578 5.416C25.1415 5.46346 25.135 5.51607 25.1563 5.5652C25.2299 5.53567 25.2972 5.52922 25.3595 5.53077C25.3021 5.58326 25.2464 5.63084 25.1988 5.69802C25.1415 5.77668 25.1759 5.86863 25.1661 5.96032C25.1563 6.06864 25.0922 6.08334 25.0266 6.11777Z" fill="#169A4C"/>
<path id="Vector_31" fill-rule="evenodd" clip-rule="evenodd" d="M24.4874 6.58701C24.6826 6.45419 24.8482 6.28358 24.9564 6.0984C24.9204 6.04579 24.8891 6.03934 24.8777 5.96712C24.8629 5.87531 24.8744 5.81135 24.8907 5.73604C24.9022 5.68678 24.9155 5.64578 24.9056 5.59652C24.8858 5.50805 24.8399 5.46215 24.7972 5.44899C24.7893 5.44577 24.7727 5.43262 24.7645 5.43262C24.7105 5.43584 24.6661 5.50638 24.6432 5.56376C24.6317 5.58994 24.6301 5.60812 24.6301 5.63584C24.6252 5.73436 24.617 5.83933 24.5628 5.93759C24.5432 5.97215 24.5105 6.00155 24.4678 6.02786C24.4693 6.20981 24.4858 6.40505 24.4874 6.58701Z" fill="#169A4C"/>
<path id="Vector_32" fill-rule="evenodd" clip-rule="evenodd" d="M24.7559 6.5083C24.6248 6.89348 24.336 7.21496 23.959 7.52974C23.9917 7.43638 24.0147 7.35591 24.0213 7.28873C24.0245 7.26255 24.0231 7.23624 24.0294 7.21006C24.0525 7.12302 24.0771 7.04771 24.1033 6.98375C24.1721 6.90341 24.2393 6.81818 24.3311 6.76724C24.5149 6.66885 24.6427 6.57046 24.7559 6.5083Z" fill="#169A4C"/>
<path id="Vector_33" fill-rule="evenodd" clip-rule="evenodd" d="M25.1359 6.4082C25.1573 6.63774 24.9097 6.94761 24.5112 7.30017C24.5129 7.1444 24.5816 6.99675 24.7179 6.85916C24.8867 6.70493 25.0359 6.55405 25.1359 6.4082Z" fill="#169A4C"/>
<path id="Vector_34" fill-rule="evenodd" clip-rule="evenodd" d="M24.0013 6.5459C23.885 6.65241 23.7751 6.79504 23.7571 6.95907C23.721 7.30337 23.657 7.43632 23.6653 7.72814C23.7882 7.5872 23.8931 7.41169 23.9343 7.11316C23.9572 6.92463 23.9801 6.7361 24.0013 6.5459Z" fill="#169A4C"/>
<path id="Vector_35" fill-rule="evenodd" clip-rule="evenodd" d="M23.5944 7.20459C23.3189 7.48352 23.1829 7.8589 23.1861 8.33267C23.2352 8.27374 23.2845 8.21649 23.3336 8.15898C23.35 8.18851 23.3697 8.2081 23.3927 8.22126C23.4517 8.10649 23.537 8.01635 23.6566 7.96709C23.8977 7.88843 24.1388 7.80977 24.3814 7.73266C24.5159 7.62446 24.688 7.40472 24.7602 7.25217C24.6455 7.34399 24.5061 7.42601 24.3191 7.49487C24.1798 7.54567 24.0453 7.62279 23.8961 7.68352C23.701 7.79649 23.5403 7.93924 23.4107 8.11139C23.4337 7.99985 23.4828 7.89166 23.4779 7.77856C23.4681 7.56205 23.5172 7.37674 23.5944 7.20459Z" fill="#169A4C"/>
<path id="Vector_36" fill-rule="evenodd" clip-rule="evenodd" d="M23.1473 8.39355C23.0259 8.48872 22.834 8.61007 22.7783 8.75759C22.8308 8.73464 22.8799 8.72148 22.9209 8.72806C23.0997 8.57551 23.1226 8.4855 23.1473 8.39355Z" fill="#169A4C"/>
<path id="Vector_37" fill-rule="evenodd" clip-rule="evenodd" d="M17.4182 7.97364C17.6019 8.17699 17.8036 8.37545 18.0265 8.56734C18.161 8.6821 18.3446 8.79017 18.5234 8.87386C18.6054 8.8411 18.6513 8.846 18.73 8.79506C18.7512 8.69667 18.7349 8.57366 18.7251 8.47385C18.5873 8.3672 18.4496 8.26223 18.3119 8.15572C18.3134 8.01787 18.3151 7.88014 18.3151 7.74242C17.4772 6.86515 17.0674 5.92728 17.1707 4.93524C17.1805 4.64187 17.2313 4.34657 17.3264 4.04984C17.4346 3.71534 17.556 3.39722 17.7757 3.06103C17.9412 2.89056 18.1266 2.69532 18.2363 2.51014C18.3085 2.3692 18.2873 2.22477 18.2349 2.11168C18.4726 1.98866 18.6267 1.82643 18.6873 1.6018C18.7104 1.52133 18.7004 1.51488 18.6349 1.48703C18.4381 1.40334 18.3841 1.33938 18.2216 1.45247C17.902 1.67878 17.6429 1.95088 17.4133 2.23303C17.3428 2.2445 17.2574 2.26255 17.174 2.28228C16.9411 2.33632 16.8115 2.38713 16.6853 2.58894C16.636 2.66579 16.5935 2.7478 16.5541 2.83149C16.4066 3.1513 16.2507 3.50373 16.131 3.87267C15.8802 4.76309 15.8622 5.57962 16.1656 6.45521C16.3508 6.98985 16.5869 7.48503 16.9214 7.93095C17.1558 7.98834 17.3215 8.00317 17.4182 7.97364Z" fill="#FEFEFE"/>
<path id="Vector_38" fill-rule="evenodd" clip-rule="evenodd" d="M17.292 2.53349C17.3478 2.39409 17.4184 2.25805 17.5495 2.17281C17.9644 1.90046 18.1185 1.96945 18.4791 1.64307C18.2857 2.01523 18.0644 2.18261 17.7512 2.32523C17.5429 2.42194 17.5839 2.34174 17.292 2.53349Z" fill="#169A4C"/>
<path id="Vector_39" fill-rule="evenodd" clip-rule="evenodd" d="M17.9829 2.3252C17.6614 2.5399 17.4106 2.63997 17.217 2.78608C17.0631 2.9385 17.0072 3.12535 16.9219 3.51905C17.3105 3.1483 17.696 2.76634 17.9829 2.3252Z" fill="#169A4C"/>
<path id="Vector_40" fill-rule="evenodd" clip-rule="evenodd" d="M17.1164 2.37939C16.9508 2.71545 16.8377 3.10411 16.808 3.52875C16.7966 3.70091 16.7015 3.84688 16.6441 3.98138C16.5785 3.55493 16.567 3.26157 16.6244 3.00418C16.6753 2.76793 16.8885 2.65484 17.1164 2.37939Z" fill="#169A4C"/>
<path id="Vector_41" fill-rule="evenodd" clip-rule="evenodd" d="M16.3651 6.11287C16.5325 6.27857 16.575 6.46207 16.5668 6.64583C16.3946 6.48012 16.2503 6.3424 16.0783 6.17683C16.0257 5.98482 15.9848 5.74393 15.9585 5.53903C15.9863 5.44386 15.9831 5.34714 16.0519 5.30936C16.0667 5.29943 16.0881 5.29144 16.0996 5.30291C16.1208 5.32251 16.1652 5.32909 16.1946 5.33399C16.0832 5.15848 16.0601 4.9764 16.0667 4.7929C16.07 4.62887 16.1111 4.41894 16.1454 4.25839C16.1946 4.0353 16.2847 3.82872 16.3913 3.63026C16.4012 3.90093 16.4275 4.20088 16.4897 4.55189C16.5995 3.95986 16.957 3.60898 17.3571 3.30078C17.3669 3.5828 17.2818 3.94026 16.6947 4.59934C16.7242 4.63545 16.7242 4.63545 16.7537 4.67156C16.9407 4.49438 17.0997 4.28947 17.2128 4.11577C17.2047 4.50263 17.1259 4.90277 16.9473 5.23237C16.9718 5.25687 16.9931 5.30781 17.0226 5.34057C17.0423 5.36184 17.0604 5.37164 17.0899 5.37332C17.1178 5.37332 17.1308 5.37164 17.1588 5.37164C17.1654 5.5701 17.1489 5.84232 17.185 5.96534C17.2013 6.24401 17.2177 6.52113 17.226 6.79825C17.1423 6.65073 17.0407 6.50811 16.962 6.35878C16.9357 6.24724 16.9455 6.13092 16.9669 6.02428C17.1276 5.95219 17.0523 5.79306 17.0489 5.63084C17.0538 5.48641 17.1244 5.51117 17.1637 5.46849C17.0685 5.45533 17.016 5.51607 16.9882 5.54393C16.944 5.53735 16.9735 5.40943 16.9293 5.36184C16.8964 5.37835 16.8915 5.51439 16.857 5.53245C16.8078 5.51775 16.7456 5.42258 16.6685 5.4111C16.716 5.33399 16.7358 5.26667 16.7111 5.17653C16.6979 5.12908 16.693 5.07995 16.7094 5.02244C16.7225 4.9764 16.7423 4.94365 16.7652 4.92237C16.7997 4.89129 16.8356 4.87169 16.8768 4.82888C16.7686 4.81585 16.6456 4.92895 16.6423 4.90109C16.6456 4.83055 16.6521 4.74686 16.6324 4.70431C16.5931 4.73874 16.5831 4.7782 16.5586 4.85854C16.5553 4.87002 16.5389 4.90109 16.5276 4.90109C16.5094 4.90277 16.4897 4.87324 16.4864 4.87001C16.4569 4.82075 16.3717 4.77652 16.3176 4.85041C16.3848 4.84538 16.4226 4.86009 16.4341 4.92895C16.4373 4.94545 16.4373 4.96015 16.4356 4.97821C16.4209 5.12405 16.3733 5.36842 16.5423 5.44218C16.4733 5.44876 16.4324 5.47171 16.3651 5.54057C16.2915 5.49789 16.2864 5.44385 16.2684 5.40117C16.2601 5.39962 16.2537 5.3964 16.2486 5.3946C16.2339 5.4044 16.2323 5.40439 16.2274 5.41755C16.2422 5.46513 16.2486 5.51607 16.229 5.5652C16.1553 5.53567 16.0881 5.52922 16.0257 5.53077C16.0832 5.58326 16.1389 5.63084 16.1864 5.69802C16.2437 5.77668 16.2094 5.86863 16.2192 5.96032C16.229 6.06864 16.2978 6.07844 16.3651 6.11287Z" fill="#169A4C"/>
<path id="Vector_42" fill-rule="evenodd" clip-rule="evenodd" d="M16.8981 6.58701C16.703 6.45419 16.5374 6.28358 16.4292 6.0984C16.4652 6.04579 16.4963 6.03934 16.5077 5.96712C16.5226 5.87531 16.5112 5.81135 16.4947 5.73604C16.4832 5.68678 16.4701 5.64578 16.4799 5.59652C16.4996 5.50805 16.5455 5.46215 16.5881 5.44899C16.5963 5.44577 16.6127 5.43262 16.6208 5.43262C16.6734 5.43584 16.7193 5.50638 16.7423 5.56376C16.7538 5.58994 16.7555 5.60812 16.7555 5.63584C16.7604 5.73436 16.7686 5.83933 16.8226 5.93759C16.8424 5.97215 16.8751 6.00155 16.9177 6.02786C16.9161 6.20981 16.8997 6.40505 16.8981 6.58701Z" fill="#169A4C"/>
<path id="Vector_43" fill-rule="evenodd" clip-rule="evenodd" d="M16.6309 6.5083C16.762 6.89348 17.0506 7.21496 17.4277 7.52974C17.3948 7.43638 17.372 7.35591 17.3654 7.28873C17.362 7.26255 17.3637 7.23624 17.3571 7.21006C17.3343 7.12302 17.3097 7.04771 17.2835 6.98375C17.2145 6.90341 17.1473 6.81818 17.0555 6.76724C16.8719 6.66885 16.744 6.57046 16.6309 6.5083Z" fill="#169A4C"/>
<path id="Vector_44" fill-rule="evenodd" clip-rule="evenodd" d="M16.2488 6.4082C16.2276 6.63774 16.4751 6.94761 16.8736 7.30017C16.8721 7.1444 16.8031 6.99675 16.667 6.85916C16.4981 6.70493 16.3489 6.55405 16.2488 6.4082Z" fill="#169A4C"/>
<path id="Vector_45" fill-rule="evenodd" clip-rule="evenodd" d="M17.3818 6.5459C17.4998 6.65241 17.6097 6.79504 17.6278 6.95907C17.6637 7.30337 17.7277 7.43632 17.7178 7.72814C17.5964 7.5872 17.4899 7.41169 17.4489 7.11316C17.4276 6.92463 17.4047 6.7361 17.3818 6.5459Z" fill="#169A4C"/>
<path id="Vector_46" fill-rule="evenodd" clip-rule="evenodd" d="M17.7914 7.20459C18.0669 7.48352 18.203 7.8589 18.1996 8.33267C18.1505 8.27374 18.1012 8.21649 18.0521 8.15898C18.0357 8.18851 18.016 8.2081 17.993 8.22126C17.934 8.10649 17.8487 8.01635 17.7291 7.96709C17.4881 7.88843 17.2469 7.80977 17.0044 7.73266C16.8699 7.62446 16.6977 7.40472 16.6255 7.25217C16.7404 7.34399 16.8797 7.42601 17.0666 7.49487C17.206 7.54567 17.3404 7.62279 17.4896 7.68352C17.6847 7.79649 17.8455 7.93924 17.975 8.11139C17.952 7.99985 17.9029 7.89166 17.9078 7.77856C17.9176 7.56205 17.8685 7.37674 17.7914 7.20459Z" fill="#169A4C"/>
<path id="Vector_47" fill-rule="evenodd" clip-rule="evenodd" d="M18.2378 8.39355C18.3591 8.48872 18.551 8.61007 18.6069 8.75759C18.5542 8.73464 18.5051 8.72148 18.4641 8.72806C18.2854 8.57551 18.2624 8.4855 18.2378 8.39355Z" fill="#169A4C"/>
<path id="Vector_48" fill-rule="evenodd" clip-rule="evenodd" d="M20.7739 0.986452V0.833641C20.7445 0.833641 20.7234 0.840092 20.7104 0.853117C20.6973 0.866141 20.6909 0.885872 20.6909 0.912178C20.6909 0.961696 20.7185 0.986452 20.7739 0.986452ZM20.8418 0.986452C20.86 0.986452 20.8756 0.983484 20.8889 0.977423C20.9018 0.971362 20.9109 0.963242 20.9166 0.952797C20.9221 0.942739 20.9249 0.927648 20.9249 0.907789C20.9249 0.8584 20.8973 0.833641 20.8418 0.833641V0.986452ZM20.8418 1.04461V1.08472H20.7739V1.04461C20.719 1.04255 20.6802 1.029 20.6575 1.00399C20.6351 0.978971 20.6239 0.947635 20.6239 0.909981C20.6239 0.870263 20.6356 0.838545 20.6592 0.814689C20.6827 0.790703 20.721 0.777676 20.7739 0.775612V0.741699H20.8418V0.775612C20.8964 0.777676 20.935 0.791092 20.9577 0.81598C20.9804 0.84061 20.9919 0.872201 20.9919 0.910113C20.9919 0.948025 20.9804 0.9791 20.9579 1.00425C20.9353 1.02901 20.8966 1.04255 20.8418 1.04461ZM20.3943 0.79947V0.897476H20.432C20.4592 0.897476 20.4774 0.895539 20.4867 0.891928C20.4958 0.888318 20.503 0.882772 20.5082 0.875035C20.5134 0.867298 20.5161 0.858402 20.5161 0.848344C20.5161 0.835835 20.5125 0.825388 20.5051 0.817264C20.4976 0.80914 20.4886 0.803983 20.4774 0.801919C20.4691 0.800372 20.4525 0.79947 20.4276 0.79947H20.3943ZM20.3247 1.08472V0.741699H20.4359C20.478 0.741699 20.5054 0.743248 20.5181 0.74673C20.5379 0.751888 20.5544 0.763234 20.5675 0.780385C20.5809 0.797665 20.5875 0.819847 20.5875 0.847185C20.5875 0.868334 20.5836 0.885995 20.5759 0.900309C20.5683 0.914752 20.5586 0.925976 20.547 0.934229C20.5352 0.942353 20.5232 0.947895 20.511 0.950474C20.4945 0.953698 20.4707 0.955372 20.4393 0.955372H20.3943V1.08472H20.3247Z" fill="#1D1D1E"/>
<path id="Vector_49" fill-rule="evenodd" clip-rule="evenodd" d="M22.5491 7.43756L22.3962 7.32537L22.439 7.50951L22.5491 7.43756ZM22.802 7.49984L22.7143 7.5571L22.6199 7.48837L22.4587 7.59359L22.485 7.70694L22.399 7.76317L22.2925 7.25922L22.3784 7.20312L22.802 7.49984ZM21.86 7.49249L22.0749 7.92165L22.1619 7.8782L22.0681 7.69044C22.0826 7.68348 22.0946 7.68077 22.1044 7.68257C22.114 7.68438 22.1295 7.69315 22.1512 7.70875C22.1633 7.71752 22.1704 7.72255 22.1721 7.72358C22.1768 7.7268 22.18 7.729 22.1816 7.73016L22.2884 7.81488L22.3904 7.76381L22.273 7.67561C22.2429 7.65279 22.2174 7.6364 22.1966 7.62609C22.1757 7.61577 22.1543 7.61255 22.1322 7.61693C22.1434 7.6003 22.1495 7.58547 22.1506 7.57245C22.1518 7.55929 22.1513 7.54408 22.1492 7.52654C22.1451 7.49353 22.1434 7.47135 22.1439 7.45974C22.1446 7.44826 22.1478 7.43833 22.1539 7.42969C22.1597 7.42118 22.1717 7.41254 22.1895 7.40364L22.2018 7.39784L22.1697 7.33375C22.1635 7.33711 22.1594 7.33917 22.1574 7.34033C22.1175 7.36032 22.0915 7.38044 22.0791 7.40055C22.0666 7.42118 22.063 7.45922 22.0684 7.51455C22.0725 7.55826 22.073 7.58573 22.0702 7.59721C22.0676 7.60868 22.0568 7.62016 22.0385 7.63189L21.947 7.44891L21.86 7.49249ZM21.4615 7.62931L21.5469 7.59901L21.6537 7.90011L21.73 7.53389L21.821 7.50152L21.9817 7.95389L21.8965 7.98432L21.7911 7.68786L21.7131 8.04932L21.6222 8.08156L21.4615 7.62931ZM21.1034 7.69844L21.1545 7.96743L21.1702 8.04828C21.1742 8.0693 21.1733 8.0831 21.1674 8.0898C21.1617 8.09651 21.1487 8.10167 21.1288 8.10541L21.1074 8.10915L21.1213 8.18304C21.1513 8.17955 21.1716 8.17685 21.1829 8.17479C21.2146 8.1686 21.2366 8.15789 21.2491 8.14229C21.2618 8.12682 21.2676 8.10709 21.2672 8.08349C21.2667 8.06002 21.2609 8.0194 21.25 7.96176L21.2119 7.76033L21.3535 7.73351L21.4279 8.1254L21.5233 8.10735L21.4338 7.63563L21.1034 7.69844ZM20.7872 8.12695L20.8811 8.11985C20.9112 8.11753 20.9323 8.11444 20.9443 8.11057C20.956 8.1067 20.9662 8.09948 20.9745 8.08826C20.9827 8.07743 20.9862 8.0644 20.985 8.04932C20.9834 8.02739 20.9742 8.01218 20.9577 8.00315C20.9412 7.99451 20.914 7.99155 20.8759 7.99451L20.7777 8.00186L20.7872 8.12695ZM20.6599 7.73661L21.0175 7.70927L21.0239 7.79025L20.763 7.8101L20.7715 7.92101L20.9007 7.91121C20.9363 7.90863 20.9662 7.91056 20.9903 7.9174C21.0144 7.92436 21.0357 7.9388 21.0542 7.96111C21.0725 7.98329 21.0829 8.01024 21.0854 8.0417C21.0878 8.07407 21.0816 8.10231 21.0665 8.12681C21.0516 8.15093 21.0338 8.16821 21.0128 8.17827C20.9921 8.18846 20.962 8.19491 20.9224 8.19813L20.6963 8.21527L20.6599 7.73661ZM20.2312 7.70694L20.34 7.7152L20.4326 7.97155L20.5469 7.73093L20.6478 7.7388L20.458 8.09006C20.4375 8.1281 20.4173 8.15686 20.3974 8.17608C20.3775 8.19529 20.3532 8.20367 20.3243 8.20161C20.2958 8.19942 20.2736 8.19581 20.2579 8.19091L20.2633 8.11882C20.277 8.12088 20.2893 8.12217 20.3003 8.12307C20.3226 8.12462 20.339 8.12179 20.3493 8.11444C20.3595 8.10696 20.3702 8.09007 20.3812 8.0635L20.2312 7.70694ZM19.8586 7.62944L19.769 8.10116L19.8646 8.11933L19.939 7.72732L20.1229 7.76214L20.0483 8.15415L20.1439 8.17234L20.2336 7.70063L19.8586 7.62944ZM19.6563 7.8769L19.736 7.93429C19.7056 7.97981 19.6702 8.00934 19.6301 8.02288C19.5902 8.03642 19.5459 8.035 19.497 8.0185C19.4366 7.99812 19.3939 7.96072 19.3689 7.9063C19.344 7.85176 19.3435 7.78883 19.3677 7.71713C19.3932 7.64143 19.4327 7.58921 19.4858 7.56033C19.5391 7.5317 19.5976 7.52809 19.6615 7.54962C19.7172 7.56845 19.7568 7.60017 19.7805 7.64479C19.7945 7.67135 19.8007 7.70449 19.7987 7.7446L19.7005 7.73557C19.703 7.71017 19.6981 7.68773 19.6856 7.66839C19.6731 7.64892 19.6546 7.63512 19.6304 7.62674C19.5965 7.61552 19.5651 7.61822 19.5359 7.63538C19.5066 7.6524 19.483 7.68812 19.4647 7.74228C19.4452 7.79966 19.4419 7.84415 19.4544 7.87561C19.4667 7.90695 19.4896 7.92823 19.5227 7.93945C19.5472 7.9477 19.5708 7.94705 19.5936 7.93738C19.6165 7.92784 19.6375 7.90772 19.6563 7.8769ZM18.9061 7.75118L19.2333 7.91198L19.2692 7.83925L19.0289 7.72126L19.0863 7.60443L19.3018 7.71042L19.3375 7.63757L19.1221 7.5317L19.1691 7.43601L19.4008 7.54975L19.4366 7.47689L19.1175 7.32034L18.9061 7.75118ZM18.8552 7.23214L18.8929 7.25948C18.9211 7.28024 18.9391 7.29468 18.9471 7.30319C18.9582 7.31479 18.9643 7.32821 18.9659 7.34342C18.9674 7.35864 18.9631 7.37334 18.9527 7.38752C18.9442 7.399 18.934 7.40687 18.9217 7.41126C18.9095 7.41577 18.8968 7.41615 18.8834 7.41254C18.8701 7.40906 18.8482 7.39617 18.8173 7.37373L18.7747 7.34265L18.8552 7.23214ZM18.5415 7.49714L18.8246 7.10938L18.9502 7.2008C18.9977 7.23562 19.0273 7.26012 19.0389 7.27456C19.0568 7.29662 19.0661 7.32279 19.0669 7.35323C19.0678 7.38379 19.0568 7.41435 19.0344 7.4453C19.0168 7.46889 18.998 7.48579 18.9775 7.49585C18.957 7.50578 18.9367 7.51055 18.9166 7.51016C18.8968 7.50965 18.8787 7.50603 18.8629 7.49894C18.8414 7.48901 18.8131 7.47109 18.7777 7.4453L18.7268 7.40803L18.62 7.55439L18.5415 7.49714Z" fill="#1D1D1E"/>
<path id="Vector_50" fill-rule="evenodd" clip-rule="evenodd" d="M23.7859 4.69217L23.7719 4.62499C23.7647 4.59082 23.7594 4.56863 23.7555 4.55819C23.7518 4.54787 23.7445 4.53962 23.7341 4.53369C23.7234 4.52776 23.711 4.52634 23.6967 4.52956C23.6817 4.53253 23.6707 4.53885 23.6633 4.54813C23.6561 4.55742 23.6526 4.56799 23.6529 4.57998C23.653 4.59184 23.6569 4.61557 23.6643 4.65091L23.6776 4.71461L23.7859 4.69217ZM23.4318 4.76593L23.6098 4.72879L23.6062 4.71138C23.6005 4.68417 23.5924 4.66573 23.5819 4.65632C23.5715 4.64678 23.5432 4.63272 23.4973 4.61403L23.3915 4.57186L23.3701 4.46921L23.4639 4.50364C23.5011 4.51718 23.5278 4.52879 23.5434 4.5382C23.5592 4.54762 23.5743 4.56038 23.5885 4.57637C23.5864 4.5355 23.5943 4.50403 23.6121 4.48211C23.6299 4.46006 23.6535 4.44587 23.6834 4.43968C23.7095 4.43414 23.7337 4.43594 23.7564 4.44484C23.7794 4.45387 23.7964 4.46818 23.8077 4.4883C23.8191 4.50829 23.8293 4.53949 23.838 4.58217L23.8759 4.76336L23.45 4.85207L23.4318 4.76593ZM23.4717 4.25941L23.6019 4.14683L23.4304 4.1476L23.4717 4.25941ZM23.3655 4.47025L23.7135 4.15598L23.6812 4.06868L23.2145 4.06082L23.2468 4.14825L23.3521 4.14799L23.4126 4.31163L23.3327 4.38114L23.3655 4.47025ZM23.428 3.56835L23.4701 3.64572L23.3073 3.73456C23.3184 3.75068 23.3292 3.7601 23.3398 3.76203C23.3501 3.76436 23.3751 3.76294 23.4146 3.75778C23.4646 3.7512 23.4991 3.75326 23.518 3.76384C23.5367 3.77428 23.5558 3.79737 23.5751 3.83296C23.5763 3.83464 23.5782 3.83824 23.5814 3.84392L23.5245 3.87513L23.5188 3.86403C23.5101 3.84804 23.5019 3.83747 23.494 3.83244C23.4861 3.82728 23.477 3.8247 23.4664 3.82445C23.4561 3.82432 23.436 3.82651 23.4062 3.83141C23.3903 3.83386 23.3765 3.83476 23.3648 3.83424C23.3528 3.8336 23.3391 3.82844 23.3238 3.81877C23.3283 3.83863 23.3262 3.8581 23.3175 3.87744C23.3088 3.89666 23.2948 3.92026 23.275 3.94824L23.1987 4.05734L23.1494 3.96655L23.2228 3.86726C23.2238 3.86571 23.2256 3.86274 23.2286 3.85836C23.2294 3.85681 23.2336 3.85024 23.2411 3.83889C23.2548 3.8189 23.2621 3.80446 23.2636 3.79569C23.2647 3.78692 23.2619 3.77596 23.255 3.76306L23.088 3.85398L23.0459 3.77661L23.428 3.56835ZM23.0829 3.55106C23.053 3.56435 23.0271 3.56847 23.0051 3.56409C22.9831 3.55958 22.965 3.54784 22.951 3.52914C22.9321 3.50374 22.9259 3.47614 22.9328 3.44623C22.9396 3.41644 22.965 3.38497 23.0089 3.35222C23.0504 3.32101 23.0865 3.30657 23.1171 3.30889C23.1476 3.31095 23.1726 3.32501 23.192 3.35093C23.2059 3.36963 23.2126 3.38936 23.212 3.41038C23.2115 3.43127 23.2035 3.45048 23.1886 3.46815L23.2572 3.5254C23.2793 3.49652 23.2918 3.46867 23.2948 3.44158C23.3002 3.39606 23.2868 3.35196 23.2549 3.30928C23.2183 3.26053 23.1728 3.23307 23.1183 3.22714C23.0639 3.22133 23.0074 3.24016 22.9494 3.28362C22.8946 3.32462 22.8626 3.37195 22.8532 3.42533C22.8438 3.47872 22.8566 3.52863 22.8913 3.57492C22.9192 3.61245 22.9517 3.6363 22.9885 3.64662C23.0254 3.65694 23.0669 3.65306 23.1131 3.63488L23.0829 3.55106ZM22.7804 3.18974L22.8258 3.26621C22.7838 3.2929 22.7439 3.30464 22.7056 3.30141C22.6675 3.29819 22.6312 3.28091 22.5966 3.24945C22.5539 3.21063 22.532 3.16408 22.531 3.10979C22.5299 3.0555 22.5525 3.00302 22.5985 2.95234C22.6473 2.89869 22.699 2.86955 22.7537 2.86504C22.8082 2.86039 22.8583 2.8787 22.9033 2.91958C22.9427 2.95543 22.9641 2.99618 22.9676 3.04196C22.9698 3.06891 22.9627 3.09883 22.9466 3.13132L22.8683 3.08825C22.8797 3.06801 22.8838 3.04776 22.8804 3.02687C22.8771 3.00624 22.8666 2.98818 22.8495 2.97258C22.8256 2.95079 22.7983 2.94163 22.7679 2.94524C22.7374 2.94898 22.7048 2.96987 22.67 3.0083C22.6331 3.04905 22.6141 3.08464 22.613 3.1152C22.6121 3.14602 22.6232 3.17181 22.6466 3.19309C22.664 3.20882 22.6839 3.21695 22.7063 3.21721C22.7288 3.21747 22.7535 3.20843 22.7804 3.18974ZM22.1352 2.88541L22.4094 3.0702L22.4505 3.0092L22.2495 2.87367L22.3152 2.77593L22.4958 2.8974L22.5368 2.83641L22.3562 2.71481L22.4104 2.63472L22.6043 2.76548L22.6455 2.70449L22.3783 2.5246L22.1352 2.88541ZM21.9976 2.32421L22.0772 2.36238L21.9971 2.5295C22.0155 2.5362 22.0297 2.53736 22.0395 2.53311C22.0492 2.52859 22.0685 2.51299 22.0977 2.48566C22.1343 2.4511 22.1636 2.43239 22.185 2.4302C22.2064 2.42762 22.2353 2.43497 22.2718 2.45251C22.2736 2.45354 22.2776 2.45509 22.2835 2.4578L22.2554 2.51635L22.2443 2.5108C22.2279 2.50306 22.2152 2.49919 22.2057 2.49984C22.1965 2.50022 22.1874 2.50332 22.1788 2.50951C22.1702 2.51531 22.1552 2.52898 22.1339 2.55026C22.1226 2.56148 22.1119 2.57038 22.1019 2.57682C22.0919 2.58327 22.078 2.58701 22.0599 2.5883C22.0751 2.60158 22.0847 2.61873 22.089 2.63949C22.0933 2.66013 22.0956 2.68746 22.096 2.72176L22.0981 2.85472L22.005 2.81023L22.0063 2.68656C22.0061 2.68475 22.0059 2.68141 22.0056 2.67612C22.0054 2.67444 22.005 2.66645 22.0046 2.6529C22.0038 2.62879 22.0014 2.6128 21.9972 2.60481C21.9931 2.59707 21.9846 2.58972 21.9714 2.58327L21.8892 2.75478L21.8097 2.71674L21.9976 2.32421ZM21.6323 2.25921L21.5901 2.37579L21.6351 2.39217C21.6676 2.4039 21.6899 2.40957 21.7024 2.40918C21.7151 2.40893 21.726 2.40531 21.7355 2.39822C21.7451 2.39139 21.7521 2.38197 21.7565 2.36972C21.7618 2.35477 21.7619 2.34097 21.7569 2.3282C21.7516 2.31518 21.7428 2.30512 21.7303 2.29777C21.7211 2.29248 21.7018 2.28436 21.672 2.27353L21.6323 2.25921ZM21.4262 2.56922L21.5091 2.59913L21.5651 2.4449L21.6187 2.46437C21.656 2.47791 21.6853 2.48617 21.7064 2.48952C21.7219 2.49159 21.7387 2.4903 21.7562 2.48552C21.7736 2.48088 21.7901 2.47173 21.8053 2.4578C21.8207 2.44387 21.8329 2.42466 21.8421 2.39951C21.8537 2.36676 21.8555 2.33736 21.8473 2.31105C21.8389 2.28488 21.824 2.26437 21.8029 2.24967C21.7891 2.24013 21.7571 2.2262 21.707 2.20815L21.5745 2.16005L21.4262 2.56922ZM21.0328 2.4921L21.1182 2.06539L21.434 2.12858L21.4195 2.20067L21.1901 2.15476L21.1712 2.24954L21.3846 2.29209L21.3701 2.36431L21.1567 2.32162L21.1336 2.4373L21.3714 2.48475L21.3571 2.55684L21.0328 2.4921ZM20.6133 2.03174L20.7014 2.03574L20.6965 2.13942C20.6949 2.1732 20.6952 2.19538 20.6972 2.2066C20.6992 2.21769 20.7061 2.22749 20.718 2.23613C20.7297 2.24464 20.7475 2.24967 20.7713 2.2507C20.79 2.2516 20.8067 2.25032 20.8216 2.24683C20.8363 2.24348 20.8494 2.23819 20.8602 2.23072L20.8688 2.04348L20.9568 2.04747L20.9371 2.48217L20.849 2.47818L20.857 2.30306C20.8388 2.31015 20.821 2.31518 20.8036 2.3184C20.7864 2.32188 20.7693 2.32291 20.7527 2.32227C20.7094 2.32033 20.6735 2.30834 20.6454 2.28655C20.6172 2.26501 20.6043 2.22878 20.6066 2.17849L20.6133 2.03174ZM20.3854 2.36947L20.3809 2.28642L20.5448 2.27727L20.5493 2.36031L20.3854 2.36947ZM19.9596 2.33878C19.9697 2.38713 19.9887 2.42131 20.0161 2.44168C20.0436 2.4618 20.0745 2.46837 20.1088 2.46128C20.1433 2.45406 20.1688 2.43575 20.1858 2.4066C20.2026 2.37707 20.2059 2.33774 20.1955 2.28835C20.1853 2.23948 20.167 2.20518 20.1404 2.18558C20.114 2.16598 20.083 2.16005 20.0475 2.1674C20.012 2.17488 19.9858 2.19306 19.9692 2.22194C19.9525 2.2507 19.9493 2.28977 19.9596 2.33878ZM19.8716 2.36031C19.8625 2.31685 19.8614 2.27894 19.8682 2.2467C19.8734 2.22285 19.8825 2.20067 19.8958 2.17991C19.9088 2.15915 19.9244 2.14251 19.9426 2.13C19.967 2.11324 19.9964 2.10111 20.0311 2.09389C20.094 2.08061 20.1482 2.08977 20.1941 2.12085C20.24 2.15192 20.27 2.20247 20.2846 2.27185C20.299 2.34071 20.2916 2.39861 20.2623 2.44529C20.2331 2.49197 20.187 2.52189 20.1244 2.53491C20.0611 2.5482 20.0066 2.53943 19.9612 2.50848C19.9157 2.47766 19.8857 2.42814 19.8716 2.36031ZM19.5556 2.50035L19.5961 2.60984L19.6725 2.58172C19.702 2.57076 19.7207 2.5629 19.7279 2.55826C19.7394 2.55142 19.7474 2.54239 19.7519 2.53092C19.7563 2.51931 19.756 2.50629 19.7506 2.49185C19.746 2.47947 19.7394 2.47018 19.7301 2.46386C19.7209 2.45754 19.7101 2.45432 19.6975 2.4547C19.6848 2.45496 19.6596 2.4618 19.6222 2.47585L19.5556 2.50035ZM19.4957 2.33852L19.5305 2.43253L19.5845 2.41267C19.6164 2.4008 19.6362 2.39306 19.6437 2.38907C19.6571 2.38236 19.6664 2.37334 19.6714 2.36238C19.6766 2.35129 19.6767 2.33916 19.6718 2.32614C19.6673 2.31337 19.66 2.30447 19.65 2.29932C19.6402 2.2939 19.6281 2.293 19.6138 2.29635C19.6054 2.29854 19.5817 2.30667 19.543 2.32098L19.4957 2.33852ZM19.3879 2.30125L19.5511 2.2409C19.5836 2.22891 19.6081 2.22143 19.625 2.21808C19.6419 2.21511 19.6581 2.2155 19.6739 2.21924C19.6895 2.22323 19.7042 2.23058 19.7179 2.24167C19.7313 2.25276 19.7414 2.26708 19.7479 2.28475C19.7549 2.3037 19.7563 2.32317 19.752 2.3429C19.7475 2.36263 19.738 2.37966 19.7233 2.3941C19.7509 2.39229 19.7743 2.39758 19.7943 2.41009C19.8142 2.42259 19.8282 2.44078 19.837 2.46437C19.8438 2.48294 19.8463 2.50267 19.8441 2.52344C19.842 2.5442 19.8355 2.56264 19.8242 2.57863C19.8133 2.59475 19.7973 2.6079 19.7761 2.61848C19.763 2.62518 19.7302 2.63821 19.6777 2.65794L19.5389 2.70926L19.3879 2.30125ZM19.1764 2.90346L19.4667 2.74498L19.4314 2.6805L19.2185 2.79669L19.1622 2.69314L19.353 2.58894L19.3178 2.52447L19.1269 2.62866L19.0807 2.54381L19.286 2.43162L19.2508 2.36714L18.9681 2.52163L19.1764 2.90346ZM18.9054 2.88296L18.7604 2.7905L18.81 2.95453L18.9054 2.88296ZM19.1378 2.92448L19.062 2.98148L18.9724 2.92487L18.8327 3.02932L18.8633 3.13042L18.7886 3.18625L18.6629 2.73686L18.7373 2.68089L19.1378 2.92448ZM18.2092 3.16072L18.313 3.26427C18.3489 3.29987 18.3842 3.31469 18.4193 3.3085C18.4544 3.30218 18.4873 3.28374 18.5178 3.25305C18.5295 3.24132 18.5401 3.22791 18.5493 3.21282C18.5587 3.19773 18.5668 3.18123 18.5739 3.16292L18.698 3.28671L18.7602 3.22443L18.452 2.91713L18.3899 2.97942L18.5226 3.11185C18.5206 3.125 18.5159 3.13829 18.5085 3.15144C18.5012 3.16459 18.4906 3.17788 18.4773 3.19116C18.4606 3.20792 18.4451 3.21785 18.4309 3.22069C18.4163 3.22378 18.4043 3.22211 18.3949 3.21617C18.3854 3.21024 18.3687 3.19541 18.3449 3.17156L18.2714 3.09818L18.2092 3.16072ZM18.2854 3.50142L18.1181 3.4617L18.2189 3.60019L18.2854 3.50142ZM18.5186 3.46402L18.4656 3.54294L18.3624 3.51882L18.2649 3.66364L18.327 3.74875L18.275 3.82625L18.0082 3.44313L18.0603 3.36576L18.5186 3.46402ZM17.8524 3.84276L17.9615 3.90169L17.9843 3.85939C18.0007 3.82909 18.0096 3.80781 18.011 3.7953C18.0126 3.78292 18.0108 3.77158 18.0052 3.761C17.9997 3.75056 17.9916 3.74231 17.9801 3.73624C17.9661 3.72851 17.9524 3.72657 17.9388 3.72966C17.9253 3.73302 17.9142 3.74011 17.905 3.75146C17.8983 3.75984 17.8875 3.77776 17.8725 3.80549L17.8524 3.84276ZM18.1288 4.09202L18.1705 4.01439L18.0262 3.93651L18.0533 3.88634C18.0723 3.85127 18.0847 3.82367 18.0911 3.80317C18.0954 3.78821 18.0965 3.77131 18.0945 3.75339C18.0925 3.73534 18.0857 3.7178 18.0743 3.70065C18.0629 3.6835 18.0455 3.66867 18.0219 3.65577C17.9916 3.6394 17.9627 3.63346 17.9353 3.63785C17.9081 3.64223 17.8857 3.65372 17.8681 3.67254C17.8565 3.68479 17.8382 3.71432 17.8128 3.76139L17.7459 3.88531L18.1288 4.09202ZM17.8865 4.2291L17.7144 4.23117L17.8458 4.34116L17.8865 4.2291ZM18.1035 4.13652L18.0711 4.22562L17.9652 4.22729L17.9059 4.39146L17.9867 4.45916L17.9549 4.54684L17.6033 4.23968L17.635 4.15224L18.1035 4.13652ZM17.4683 4.7836L17.895 4.86884L17.9124 4.78244L17.7258 4.74517C17.7288 4.73073 17.7336 4.72067 17.7402 4.71474C17.7469 4.70881 17.7619 4.70249 17.7851 4.69566C17.7983 4.69192 17.8056 4.68972 17.8073 4.68895C17.8122 4.6874 17.8155 4.68637 17.8173 4.68585L17.9374 4.65671L17.9576 4.55536L17.8292 4.59017C17.7962 4.59894 17.7701 4.60809 17.7512 4.61725C17.7322 4.62653 17.718 4.64007 17.7088 4.65813C17.7032 4.64098 17.6961 4.62834 17.6874 4.62022C17.6786 4.61196 17.6674 4.60397 17.6536 4.59572C17.6278 4.58037 17.6109 4.56928 17.603 4.56232C17.595 4.55561 17.5897 4.54761 17.5869 4.53859C17.5842 4.52956 17.5846 4.51641 17.5882 4.49849L17.5909 4.48636L17.5271 4.47373C17.526 4.48017 17.5254 4.48417 17.525 4.48623C17.5169 4.52595 17.5169 4.55574 17.5246 4.57586C17.5321 4.5961 17.5574 4.61983 17.5999 4.64678C17.6335 4.66832 17.6536 4.68314 17.6601 4.69152C17.6668 4.69991 17.6692 4.71397 17.6672 4.73357L17.4855 4.6972L17.4683 4.7836Z" fill="#1D1D1E"/>
<path id="Vector_51" fill-rule="evenodd" clip-rule="evenodd" d="M21.354 9.609V9.67747H21.0946C21.0973 9.65142 21.1058 9.62666 21.1199 9.60345C21.1338 9.58024 21.1616 9.54929 21.203 9.51073C21.2363 9.47965 21.2568 9.4585 21.2643 9.44741C21.2745 9.4322 21.2796 9.41711 21.2796 9.4019C21.2796 9.38539 21.2751 9.37288 21.2663 9.36385C21.2574 9.35496 21.2452 9.35057 21.2297 9.35057C21.2141 9.35057 21.202 9.35521 21.1928 9.36463C21.1838 9.37378 21.1787 9.38939 21.1771 9.41105L21.1032 9.4037C21.1076 9.36283 21.1214 9.33342 21.1446 9.31563C21.1677 9.29796 21.1967 9.28906 21.2315 9.28906C21.2696 9.28906 21.2996 9.29938 21.3214 9.32001C21.3432 9.34051 21.354 9.36617 21.354 9.39687C21.354 9.41427 21.3508 9.43078 21.3448 9.44665C21.3386 9.46238 21.3285 9.47888 21.3151 9.49616C21.3061 9.50764 21.2898 9.52402 21.2665 9.54555C21.243 9.56709 21.2282 9.58127 21.2221 9.58849C21.2157 9.59533 21.2105 9.60229 21.2069 9.609H21.354ZM20.9731 9.42575C20.9731 9.4019 20.9676 9.38345 20.9566 9.3703C20.9458 9.35728 20.9331 9.35057 20.9187 9.35057C20.9051 9.35057 20.8938 9.35586 20.8847 9.36682C20.8758 9.37752 20.8711 9.39506 20.8711 9.41969C20.8711 9.44458 20.876 9.46276 20.8859 9.4745C20.8956 9.4861 20.9079 9.49191 20.9227 9.49191C20.9369 9.49191 20.9489 9.48623 20.9585 9.47501C20.9682 9.46379 20.9731 9.44742 20.9731 9.42575ZM20.8064 9.58772L20.8782 9.57985C20.8799 9.59442 20.8844 9.60538 20.8917 9.61235C20.8991 9.61944 20.9086 9.62305 20.9208 9.62305C20.9358 9.62305 20.9489 9.61583 20.9593 9.60177C20.97 9.58759 20.9767 9.55845 20.9797 9.51396C20.961 9.53562 20.9378 9.54633 20.9099 9.54633C20.8796 9.54633 20.8533 9.53472 20.8313 9.51125C20.8092 9.48778 20.7984 9.45734 20.7984 9.41969C20.7984 9.38062 20.8099 9.3489 20.8332 9.32504C20.8565 9.30106 20.8861 9.28906 20.9222 9.28906C20.9612 9.28906 20.9935 9.30428 21.0185 9.33458C21.0436 9.36501 21.0562 9.41492 21.0562 9.48443C21.0562 9.55522 21.0431 9.60616 21.0171 9.63736C20.991 9.66883 20.9571 9.68456 20.9152 9.68456C20.885 9.68456 20.8607 9.67644 20.8421 9.66019C20.8237 9.64407 20.8117 9.61983 20.8064 9.58772ZM20.673 9.42575C20.673 9.4019 20.6676 9.38345 20.6565 9.3703C20.6458 9.35728 20.6331 9.35057 20.6187 9.35057C20.6049 9.35057 20.5937 9.35586 20.5847 9.36682C20.5757 9.37752 20.5713 9.39506 20.5713 9.41969C20.5713 9.44458 20.5761 9.46276 20.5859 9.4745C20.5957 9.4861 20.6079 9.49191 20.6227 9.49191C20.6368 9.49191 20.6488 9.48623 20.6586 9.47501C20.6683 9.46379 20.673 9.44742 20.673 9.42575ZM20.5064 9.58772L20.5781 9.57985C20.5798 9.59442 20.5844 9.60538 20.5917 9.61235C20.599 9.61944 20.6087 9.62305 20.6207 9.62305C20.6358 9.62305 20.6488 9.61583 20.6594 9.60177C20.6699 9.58759 20.6766 9.55845 20.6796 9.51396C20.661 9.53562 20.638 9.54633 20.6099 9.54633C20.5795 9.54633 20.5532 9.53472 20.5313 9.51125C20.5093 9.48778 20.4983 9.45734 20.4983 9.41969C20.4983 9.38062 20.5099 9.3489 20.5331 9.32504C20.5565 9.30106 20.5862 9.28906 20.6221 9.28906C20.6612 9.28906 20.6934 9.30428 20.7186 9.33458C20.7436 9.36501 20.7561 9.41492 20.7561 9.48443C20.7561 9.55522 20.7431 9.60616 20.7171 9.63736C20.6911 9.66883 20.657 9.68456 20.6151 9.68456C20.585 9.68456 20.5607 9.67644 20.5421 9.66019C20.5236 9.64407 20.5116 9.61983 20.5064 9.58772ZM20.3929 9.67747H20.3192V9.3979C20.2921 9.4233 20.2603 9.44213 20.2236 9.45412V9.38681C20.243 9.38036 20.264 9.36849 20.2866 9.3507C20.3091 9.33316 20.3246 9.31253 20.3331 9.28906H20.3929V9.67747Z" fill="#1D1D1E"/>
<path id="Vector_52" d="M12.1735 27.1455C15.0942 29.6832 17.8795 32.1034 20.7151 34.5673C23.5176 32.133 26.3173 29.7012 29.2417 27.1611C29.2417 28.4022 29.2489 29.4992 29.2313 30.5958C29.2294 30.7167 29.1081 30.8609 29.0044 30.9512C26.3122 33.2993 23.6153 35.642 20.9179 37.9839C20.8547 38.0387 20.7748 38.0743 20.6784 38.1339C17.9362 35.7475 15.1907 33.364 12.4585 30.9651C12.3066 30.8318 12.1917 30.5736 12.1862 30.3701C12.1584 29.3658 12.1735 28.3604 12.1735 27.1455Z" fill="#0089C2"/>
<path id="Vector_53" d="M20.7109 45.2127C19.7969 44.4179 18.9062 43.6506 18.0269 42.8704C17.9081 42.7652 17.7726 42.5973 17.7698 42.456C17.7484 41.3747 17.758 40.2929 17.758 39.0593C18.8044 39.9629 19.7353 40.7669 20.7157 41.6135C23.5286 39.1719 26.3274 36.7427 29.2447 34.2104C29.2447 34.9292 29.2448 35.4965 29.2447 36.064C29.2445 37.6695 29.2542 39.2751 29.2328 40.8803C29.2298 41.1056 29.1365 41.3964 28.9788 41.5414C28.1931 42.264 27.3719 42.9481 26.4632 43.7318C26.4632 42.5674 26.4632 41.5017 26.4632 40.2255C24.4503 41.9706 22.589 43.5844 20.7109 45.2127Z" fill="#E6382E"/>
<path id="Vector_54" d="M12.168 34.1929C13.1574 35.0552 14.0088 35.7912 14.8492 36.5398C14.9312 36.6128 14.9841 36.7623 14.9844 36.8765C14.9922 39.1157 14.9902 41.3548 14.9902 43.7399C14.041 42.9195 13.1879 42.1936 12.3532 41.4474C12.2436 41.3494 12.1764 41.1472 12.1756 40.9928C12.1644 38.7939 12.168 36.5949 12.168 34.1929Z" fill="#00703C"/>
<path id="Vector_55" d="M10.4286 15.6626L11.2103 17.4833L11.9892 15.6626H12.3193V17.8021H12.1051V15.9001L11.3001 17.8021H11.1177L10.3127 15.9001V17.8021H10.0986V15.6626H10.4286Z" fill="#293F66" stroke="#293F66" stroke-width="0.333354" stroke-miterlimit="22.9256"/>
<path id="Vector_56" d="M14.4035 17.8021H14.1893V15.9206L12.9758 17.8021H12.7588V15.6626H12.973V17.4374L14.1109 15.6626H14.4035V17.8021Z" fill="#293F66" stroke="#293F66" stroke-width="0.333354" stroke-miterlimit="22.9256"/>
<path id="Vector_57" d="M15.0565 15.6626V16.6033H16.1655V15.6626H16.3797V17.8021H16.1655V16.7978H15.0565V17.8021H14.8423V15.6626H15.0565Z" fill="#293F66" stroke="#293F66" stroke-width="0.333354" stroke-miterlimit="22.9256"/>
<path id="Vector_58" d="M18.4661 17.8021H18.2519V15.9206L17.0383 17.8021H16.8213V15.6626H17.0355V17.4374L18.1734 15.6626H18.4661V17.8021Z" fill="#293F66" stroke="#293F66" stroke-width="0.333354" stroke-miterlimit="22.9256"/>
<path id="Vector_59" d="M20.47 16.0078C20.3897 15.9506 20.3023 15.9072 20.2077 15.8777C20.1133 15.8483 20.0181 15.8336 19.9219 15.8336C19.764 15.8336 19.6162 15.8749 19.4784 15.9575C19.3405 16.0403 19.2309 16.1506 19.1494 16.2884C19.0678 16.4261 19.027 16.5716 19.027 16.7248C19.027 16.8874 19.0687 17.0385 19.1519 17.1782C19.235 17.3179 19.3469 17.4288 19.4872 17.5108C19.6276 17.5928 19.7773 17.6337 19.936 17.6337C20.0797 17.6337 20.2181 17.5981 20.3509 17.527C20.4837 17.4558 20.5927 17.3612 20.6774 17.2429H20.9149C20.8532 17.3612 20.7713 17.4653 20.6693 17.5553C20.5673 17.6453 20.4529 17.7152 20.3261 17.7649C20.1994 17.8146 20.0694 17.8393 19.936 17.8393C19.7819 17.8393 19.6366 17.8114 19.4999 17.7553C19.3632 17.6992 19.2433 17.6204 19.1398 17.5189C19.0363 17.4173 18.9561 17.2981 18.8989 17.1612C18.8416 17.0244 18.813 16.8789 18.813 16.7248C18.813 16.5265 18.8626 16.3432 18.9621 16.1749C19.0615 16.0068 19.196 15.8735 19.3657 15.7752C19.5353 15.6769 19.7198 15.6279 19.919 15.6279C20.1505 15.6279 20.3559 15.6876 20.5354 15.8074C20.6112 15.855 20.6854 15.9163 20.7576 15.9912C20.8299 16.0661 20.8796 16.1397 20.9064 16.2123H20.669C20.6167 16.1333 20.5504 16.0651 20.47 16.0078Z" fill="#293F66" stroke="#293F66" stroke-width="0.333354" stroke-miterlimit="22.9256"/>
<path id="Vector_60" d="M20.8999 15.8563V15.6626H22.0923V15.8563H21.6032V17.8021H21.389V15.8563H20.8999Z" fill="#293F66" stroke="#293F66" stroke-width="0.333354" stroke-miterlimit="22.9256"/>
<path id="Vector_61" d="M23.5023 15.6626V15.8563H22.5467V16.6267H23.4705V16.8203H22.5467V17.6084H23.5023V17.8021H22.3325V15.6626H23.5023Z" fill="#293F66" stroke="#293F66" stroke-width="0.333354" stroke-miterlimit="22.9256"/>
<path id="Vector_62" d="M24.4471 15.6626C24.5287 15.6635 24.6006 15.6662 24.6627 15.6707C24.7249 15.6752 24.7865 15.6857 24.8476 15.7022C24.9086 15.7187 24.9661 15.7441 25.0204 15.7785C25.1113 15.8355 25.1809 15.9104 25.2288 16.0029C25.2769 16.0955 25.301 16.1962 25.301 16.305C25.301 16.5172 25.2199 16.6822 25.0578 16.8006C24.9824 16.8562 24.9006 16.8932 24.8122 16.9115C24.7238 16.9298 24.6205 16.939 24.5023 16.939H24.0994V17.8021H23.8853V15.6626H24.4471ZM24.71 16.7292C24.7775 16.7183 24.8404 16.6947 24.8988 16.6585C24.9581 16.6218 25.0043 16.5712 25.0373 16.5069C25.0703 16.4425 25.0868 16.3743 25.0868 16.3023C25.0868 16.2104 25.0634 16.1294 25.0164 16.0595C24.9696 15.9895 24.9042 15.9373 24.8203 15.903C24.7422 15.87 24.6418 15.8535 24.5192 15.8535C24.5032 15.8535 24.479 15.854 24.4465 15.8549C24.414 15.8558 24.3901 15.8563 24.375 15.8563H24.0994V16.7454H24.4676C24.5619 16.7454 24.6427 16.74 24.71 16.7292Z" fill="#293F66" stroke="#293F66" stroke-width="0.333354" stroke-miterlimit="22.9256"/>
<path id="Vector_63" d="M27.1621 16.0073C27.0816 15.9501 26.9943 15.9068 26.8998 15.8772C26.8053 15.8478 26.71 15.8331 26.6139 15.8331C26.456 15.8331 26.3081 15.8744 26.1704 15.957C26.0326 16.0398 25.9228 16.1501 25.8413 16.2879C25.7598 16.4257 25.7191 16.5711 25.7191 16.7243C25.7191 16.8869 25.7607 17.0381 25.8438 17.1777C25.927 17.3174 26.0387 17.4283 26.1792 17.5103C26.3196 17.5923 26.4692 17.6332 26.6281 17.6332C26.7717 17.6332 26.91 17.5976 27.0429 17.5265C27.1757 17.4554 27.2846 17.3607 27.3694 17.2424H27.607C27.5452 17.3607 27.4633 17.4648 27.3613 17.5548C27.2593 17.6448 27.1449 17.7147 27.0182 17.7645C26.8914 17.8141 26.7614 17.8389 26.6281 17.8389C26.474 17.8389 26.3285 17.8109 26.1919 17.7548C26.0553 17.6987 25.9352 17.6199 25.8318 17.5184C25.7284 17.4168 25.648 17.2976 25.5908 17.1607C25.5335 17.0239 25.5049 16.8784 25.5049 16.7243C25.5049 16.526 25.5547 16.3427 25.6541 16.1745C25.7535 16.0063 25.888 15.873 26.0576 15.7747C26.2273 15.6764 26.4118 15.6274 26.611 15.6274C26.8424 15.6274 27.0478 15.6871 27.2273 15.8069C27.3033 15.8545 27.3773 15.9158 27.4496 15.9907C27.522 16.0656 27.5716 16.1393 27.5984 16.2119H27.3609C27.3087 16.1328 27.2423 16.0646 27.1621 16.0073Z" fill="#293F66" stroke="#293F66" stroke-width="0.333354" stroke-miterlimit="22.9256"/>
<path id="Vector_64" d="M27.5938 15.8563V15.6626H28.7862V15.8563H28.2971V17.8021H28.0829V15.8563H27.5938Z" fill="#293F66" stroke="#293F66" stroke-width="0.333354" stroke-miterlimit="22.9256"/>
<path id="Vector_65" d="M29.5275 15.6626C29.6306 15.6626 29.7209 15.6696 29.7982 15.6835C29.8755 15.6974 29.9473 15.7263 30.0138 15.77C30.091 15.8204 30.1523 15.8869 30.1975 15.969C30.2428 16.0513 30.2654 16.1383 30.2654 16.2301C30.2654 16.4041 30.1864 16.5468 30.0286 16.6585C30.1403 16.7038 30.2269 16.7738 30.2887 16.8687C30.3505 16.9637 30.3813 17.0731 30.3813 17.197C30.3813 17.2946 30.3578 17.3875 30.311 17.4758C30.2641 17.5643 30.1996 17.6343 30.1177 17.6861C30.0593 17.722 29.9993 17.748 29.9378 17.7647C29.8763 17.781 29.8161 17.7912 29.7571 17.7951C29.6983 17.7987 29.6226 17.8012 29.5303 17.8021H29.0264V15.6626H29.5275ZM29.7052 16.5659C29.7677 16.5584 29.8254 16.5409 29.8781 16.5136C29.9289 16.4867 29.9706 16.4453 30.0028 16.3896C30.035 16.3337 30.0513 16.2756 30.0513 16.2153C30.0513 16.1579 30.0353 16.1021 30.0036 16.0478C29.9717 15.9936 29.9308 15.9512 29.8809 15.9206C29.8334 15.8928 29.7786 15.8751 29.7165 15.8676C29.6546 15.86 29.5791 15.8563 29.4901 15.8563H29.2406V16.5773H29.4723C29.5651 16.5773 29.6428 16.5734 29.7052 16.5659ZM29.7632 17.5975C29.8341 17.5902 29.8983 17.5724 29.9557 17.5442C30.0166 17.5126 30.0665 17.4643 30.1056 17.3996C30.1448 17.3347 30.1644 17.2682 30.1644 17.1999C30.1644 17.1089 30.1405 17.0291 30.0929 16.9606C30.0454 16.892 29.9802 16.8434 29.8978 16.8147C29.8092 16.786 29.6656 16.7716 29.4667 16.7716H29.2406V17.6084H29.5041C29.6059 17.6084 29.6923 17.6048 29.7632 17.5975Z" fill="#293F66" stroke="#293F66" stroke-width="0.333354" stroke-miterlimit="22.9256"/>
<path id="Vector_66" d="M32.7037 17.2869C32.6017 17.4579 32.4636 17.5928 32.2895 17.6915C32.1154 17.7902 31.9273 17.8394 31.7251 17.8394C31.5276 17.8394 31.3421 17.7906 31.1683 17.6924C30.9943 17.5946 30.8554 17.4612 30.7516 17.2928C30.6477 17.1244 30.5957 16.9409 30.5957 16.7426C30.5957 16.54 30.6464 16.3535 30.748 16.1832C30.8495 16.0128 30.9872 15.8782 31.1612 15.7792C31.335 15.6802 31.523 15.6309 31.7251 15.6309C31.9239 15.6309 32.1105 15.6797 32.2846 15.7775C32.4587 15.8752 32.5976 16.0083 32.7012 16.1765C32.8048 16.3446 32.8566 16.5284 32.8566 16.7277C32.8566 16.9294 32.8057 17.1158 32.7037 17.2869ZM30.9367 17.1893C31.0212 17.3254 31.1345 17.4336 31.2763 17.5137C31.4182 17.5938 31.5687 17.6338 31.7279 17.6338C31.8509 17.6338 31.9684 17.6106 32.0803 17.5639C32.1921 17.5172 32.2904 17.4523 32.3747 17.3692C32.4591 17.286 32.5247 17.1893 32.5719 17.079C32.619 16.9688 32.6426 16.8517 32.6426 16.7277C32.6426 16.5671 32.6007 16.4183 32.5167 16.2814C32.4329 16.1445 32.3202 16.0362 32.1789 15.9563C32.0375 15.8764 31.8872 15.8364 31.7279 15.8364C31.6045 15.8364 31.4869 15.8596 31.3752 15.906C31.2635 15.9525 31.1652 16.0177 31.0798 16.1019C30.9945 16.186 30.9283 16.2832 30.8808 16.3935C30.8335 16.5036 30.8099 16.6201 30.8099 16.7426C30.8099 16.9041 30.8522 17.0531 30.9367 17.1893Z" fill="#293F66" stroke="#293F66" stroke-width="0.333354" stroke-miterlimit="22.9256"/>
<path id="Vector_67" d="M5.05141 19.1362V21.2757H4.83735V19.3299H3.72835V21.2757H3.51416V19.1362H5.05141Z" fill="#293F66" stroke="#293F66" stroke-width="0.333354" stroke-miterlimit="22.9256"/>
<path id="Vector_68" d="M7.5079 20.7606C7.4059 20.9316 7.26779 21.0665 7.0937 21.1652C6.91962 21.2639 6.73147 21.3133 6.5294 21.3133C6.33198 21.3133 6.14629 21.2643 5.97246 21.1662C5.7985 21.0682 5.65962 20.935 5.55581 20.7666C5.45187 20.5982 5.3999 20.4147 5.3999 20.2163C5.3999 20.0137 5.45071 19.8273 5.5522 19.6569C5.65381 19.4866 5.79153 19.352 5.96536 19.253C6.13919 19.154 6.32721 19.1045 6.5294 19.1045C6.72812 19.1045 6.91472 19.1535 7.08881 19.2512C7.26289 19.349 7.40177 19.4819 7.50545 19.6502C7.60913 19.8184 7.66097 20.0021 7.66097 20.2015C7.66097 20.4032 7.6099 20.5895 7.5079 20.7606ZM5.74099 20.663C5.82545 20.7992 5.93867 20.9073 6.08052 20.9875C6.22237 21.0675 6.37286 21.1075 6.53224 21.1075C6.65513 21.1075 6.77261 21.0843 6.88454 21.0376C6.99647 20.991 7.09461 20.9261 7.17894 20.8429C7.26328 20.7597 7.32892 20.663 7.37611 20.5528C7.42318 20.4425 7.44678 20.3254 7.44678 20.2015C7.44678 20.0408 7.40487 19.892 7.32092 19.7552C7.2371 19.6182 7.12439 19.5099 6.98306 19.4301C6.84173 19.3501 6.69137 19.3103 6.53224 19.3103C6.4087 19.3103 6.29123 19.3334 6.17956 19.3799C6.06788 19.4262 5.96936 19.4915 5.88399 19.5756C5.79876 19.6598 5.73247 19.7569 5.68515 19.8671C5.63769 19.9775 5.6141 20.0938 5.6141 20.2163C5.6141 20.3779 5.65639 20.5268 5.74099 20.663Z" fill="#293F66" stroke="#293F66" stroke-width="0.333354" stroke-miterlimit="22.9256"/>
<path id="Vector_69" d="M9.90163 19.1362H10.918V21.082H11.0629V21.2757H9.23584V21.082H9.34893L9.90163 19.1362ZM10.7038 19.3299H10.0606L9.57447 21.082H10.7038V19.3299Z" fill="#293F66" stroke="#293F66" stroke-width="0.333354" stroke-miterlimit="22.9256"/>
<path id="Vector_70" d="M12.5281 19.1362V19.3299H11.5726V20.1003H12.4963V20.294H11.5726V21.082H12.5281V21.2757H11.3584V19.1362H12.5281Z" fill="#293F66" stroke="#293F66" stroke-width="0.333354" stroke-miterlimit="22.9256"/>
<path id="Vector_71" d="M14.3705 21.2757H14.1563V19.3299H13.4842L12.9427 21.2757H12.7173L13.325 19.1362H14.3705V21.2757Z" fill="#293F66" stroke="#293F66" stroke-width="0.333354" stroke-miterlimit="22.9256"/>
<path id="Vector_72" d="M15.7838 19.1362L16.7013 21.2757H16.4694L16.1598 20.5575H15.164L14.8544 21.2757H14.6226L15.5464 19.1362H15.7838ZM15.665 19.3821L15.2481 20.364H16.0757L15.665 19.3821Z" fill="#293F66" stroke="#293F66" stroke-width="0.333354" stroke-miterlimit="22.9256"/>
<path id="Vector_73" d="M17.2821 19.1362L18.064 20.9569L18.8427 19.1362H19.1729V21.2757H18.9587V19.3738L18.1537 21.2757H17.9713L17.1663 19.3738V21.2757H16.9521V19.1362H17.2821Z" fill="#293F66" stroke="#293F66" stroke-width="0.333354" stroke-miterlimit="22.9256"/>
<path id="Vector_74" d="M21.3916 19.1362L22.1734 20.9569L22.9522 19.1362H23.2824V21.2757H23.0682V19.3738L22.2631 21.2757H22.0808L21.2757 19.3738V21.2757H21.0615V19.1362H21.3916Z" fill="#293F66" stroke="#293F66" stroke-width="0.333354" stroke-miterlimit="22.9256"/>
<path id="Vector_75" d="M25.7364 20.7606C25.6344 20.9316 25.4963 21.0665 25.3222 21.1652C25.1481 21.2639 24.96 21.3133 24.7578 21.3133C24.5604 21.3133 24.3748 21.2643 24.2008 21.1662C24.027 21.0682 23.8881 20.935 23.7842 20.7666C23.6803 20.5982 23.6284 20.4147 23.6284 20.2163C23.6284 20.0137 23.6791 19.8273 23.7807 19.6569C23.8822 19.4866 24.0199 19.352 24.1937 19.253C24.3677 19.154 24.5557 19.1045 24.7578 19.1045C24.9566 19.1045 25.1431 19.1535 25.3172 19.2512C25.4913 19.349 25.6303 19.4819 25.7338 19.6502C25.8375 19.8184 25.8893 20.0021 25.8893 20.2015C25.8893 20.4032 25.8384 20.5895 25.7364 20.7606ZM23.9694 20.663C24.054 20.7992 24.1672 20.9073 24.309 20.9875C24.4509 21.0675 24.6014 21.1075 24.7606 21.1075C24.8836 21.1075 25.0011 21.0843 25.1131 21.0376C25.2249 20.991 25.323 20.9261 25.4073 20.8429C25.4917 20.7597 25.5574 20.663 25.6045 20.5528C25.6517 20.4425 25.6753 20.3254 25.6753 20.2015C25.6753 20.0408 25.6333 19.892 25.5494 19.7552C25.4655 19.6182 25.3529 19.5099 25.2116 19.4301C25.0702 19.3501 24.9199 19.3103 24.7606 19.3103C24.6372 19.3103 24.5196 19.3334 24.4079 19.3799C24.2963 19.4262 24.1979 19.4915 24.1125 19.5756C24.0273 19.6598 23.9609 19.7569 23.9135 19.8671C23.8662 19.9775 23.8426 20.0938 23.8426 20.2163C23.8426 20.3779 23.8848 20.5268 23.9694 20.663Z" fill="#293F66" stroke="#293F66" stroke-width="0.333354" stroke-miterlimit="22.9256"/>
<path id="Vector_76" d="M27.5912 21.2757H27.3771V19.3299H26.7049L26.1635 21.2757H25.938L26.5459 19.1362H27.5912V21.2757Z" fill="#293F66" stroke="#293F66" stroke-width="0.333354" stroke-miterlimit="22.9256"/>
<path id="Vector_77" d="M30.047 20.7606C29.9448 20.9316 29.8068 21.0665 29.6328 21.1652C29.4587 21.2639 29.2705 21.3133 29.0683 21.3133C28.8709 21.3133 28.6852 21.2643 28.5114 21.1662C28.3376 21.0682 28.1987 20.935 28.0947 20.7666C27.9908 20.5982 27.939 20.4147 27.939 20.2163C27.939 20.0137 27.9896 19.8273 28.0913 19.6569C28.1927 19.4866 28.3305 19.352 28.5043 19.253C28.6783 19.154 28.8663 19.1045 29.0683 19.1045C29.2672 19.1045 29.4536 19.1535 29.6277 19.2512C29.802 19.349 29.9408 19.4819 30.0445 19.6502C30.1481 19.8184 30.1999 20.0021 30.1999 20.2015C30.1999 20.4032 30.149 20.5895 30.047 20.7606ZM28.2799 20.663C28.3645 20.7992 28.4777 20.9073 28.6196 20.9875C28.7614 21.0675 28.9119 21.1075 29.0712 21.1075C29.1942 21.1075 29.3117 21.0843 29.4235 21.0376C29.5354 20.991 29.6335 20.9261 29.7179 20.8429C29.8022 20.7597 29.868 20.663 29.915 20.5528C29.9622 20.4425 29.9857 20.3254 29.9857 20.2015C29.9857 20.0408 29.9438 19.892 29.86 19.7552C29.776 19.6182 29.6635 19.5099 29.5221 19.4301C29.3808 19.3501 29.2304 19.3103 29.0712 19.3103C28.9478 19.3103 28.8302 19.3334 28.7185 19.3799C28.6068 19.4262 28.5083 19.4915 28.423 19.5756C28.3378 19.6598 28.2714 19.7569 28.2241 19.8671C28.1768 19.9775 28.153 20.0938 28.153 20.2163C28.153 20.3779 28.1953 20.5268 28.2799 20.663Z" fill="#293F66" stroke="#293F66" stroke-width="0.333354" stroke-miterlimit="22.9256"/>
<path id="Vector_78" d="M30.8855 19.1362H31.9018V21.082H32.0467V21.2757H30.2197V21.082H30.3328L30.8855 19.1362ZM31.6877 19.3299H31.0445L30.5582 21.082H31.6877V19.3299Z" fill="#293F66" stroke="#293F66" stroke-width="0.333354" stroke-miterlimit="22.9256"/>
<path id="Vector_79" d="M33.5106 19.1362V19.3299H32.5549V20.1003H33.4787V20.294H32.5549V21.082H33.5106V21.2757H32.3408V19.1362H33.5106Z" fill="#293F66" stroke="#293F66" stroke-width="0.333354" stroke-miterlimit="22.9256"/>
<path id="Vector_80" d="M33.9566 21.2757H33.6909L34.5362 20.1788L33.6909 19.1362H33.963C33.996 19.1767 34.0481 19.2413 34.1196 19.3299C34.191 19.4185 34.2715 19.5187 34.3613 19.6306C34.4511 19.7426 34.5379 19.8509 34.6217 19.9557C34.7057 20.0606 34.7476 20.1137 34.7476 20.1151V19.1362H34.9618V20.1116L35.7462 19.1362H36.0184L35.173 20.1788L36.0184 21.2757H35.7519L34.9618 20.2537V21.2757H34.7476V20.2537L33.9566 21.2757Z" fill="#293F66" stroke="#293F66" stroke-width="0.333354" stroke-miterlimit="22.9256"/>
<path id="Vector_81" d="M37.8991 21.2757H37.6849V19.3943L36.4713 21.2757H36.2544V19.1362H36.4685V20.911L37.6065 19.1362H37.8991V21.2757Z" fill="#293F66" stroke="#293F66" stroke-width="0.333354" stroke-miterlimit="22.9256"/>
<path id="Vector_82" d="M19.2445 22.6104V23.8408L20.2319 22.6104H20.504L19.6587 23.6529L20.504 24.7498H20.2375L19.5229 23.8233L19.2445 24.1653V24.7498H19.0303V22.6104H19.2445Z" fill="#293F66" stroke="#293F66" stroke-width="0.333354" stroke-miterlimit="22.9256"/>
<path id="Vector_83" d="M20.8781 22.6104V23.4062C20.8781 23.4798 20.8954 23.5437 20.9297 23.598C20.9641 23.6525 21.0113 23.6939 21.0712 23.7224C21.131 23.7511 21.1969 23.7653 21.2691 23.7653C21.5017 23.7653 21.7141 23.692 21.9059 23.5454V22.6104H22.1199V24.7498H21.9059V23.7511C21.6849 23.8958 21.458 23.9681 21.2253 23.9681C21.1498 23.9681 21.0786 23.9558 21.0117 23.9313C20.9448 23.9068 20.885 23.8709 20.8318 23.8233C20.7788 23.7756 20.7377 23.719 20.7082 23.6532C20.6788 23.5874 20.6641 23.5148 20.6641 23.4351V22.6104H20.8781Z" fill="#293F66" stroke="#293F66" stroke-width="0.333354" stroke-miterlimit="22.9256"/>
<path id="Vector_84" d="M23.119 22.6104C23.2005 22.6114 23.2724 22.614 23.3346 22.6185C23.3967 22.623 23.4584 22.6334 23.5194 22.6499C23.5804 22.6664 23.638 22.6918 23.6922 22.7263C23.7831 22.7833 23.8526 22.8581 23.9007 22.9507C23.9488 23.0432 23.9728 23.144 23.9728 23.2528C23.9728 23.4648 23.8918 23.63 23.7297 23.7482C23.6543 23.8039 23.5724 23.8408 23.484 23.8593C23.3957 23.8776 23.2924 23.8869 23.1742 23.8869H22.7712V24.7498H22.5571V22.6104H23.119ZM23.3819 23.6769C23.4494 23.6661 23.5122 23.6425 23.5706 23.6063C23.63 23.5694 23.6762 23.519 23.7092 23.4546C23.7422 23.3904 23.7586 23.322 23.7586 23.25C23.7586 23.158 23.7351 23.0772 23.6883 23.0073C23.6415 22.9372 23.576 22.885 23.4922 22.8506C23.414 22.8177 23.3136 22.8012 23.1911 22.8012C23.1751 22.8012 23.1508 22.8017 23.1183 22.8026C23.0858 22.8035 23.062 22.804 23.0469 22.804H22.7712V23.6932H23.1395C23.2337 23.6932 23.3146 23.6878 23.3819 23.6769Z" fill="#293F66" stroke="#293F66" stroke-width="0.333354" stroke-miterlimit="22.9256"/>
</g>
</g>
</g>
</g>
</svg>
