<svg width="42" height="50" viewBox="0 0 42 50" fill="none" xmlns="http://www.w3.org/2000/svg">
<g id="&#208;&#161;&#208;&#187;&#208;&#190;&#208;&#185;_x0020_1">
<g id="_1812957011136">
<path id="Vector" d="M39.5179 43.1003L34.4079 33.2756C34.2662 33.002 33.9839 32.8303 33.6759 32.8303C33.4665 32.8303 33.2649 32.9099 33.112 33.0531C32.4876 33.6423 32.0189 34.3797 31.7525 35.1963C31.3786 36.3224 30.4737 37.1946 29.3338 37.525C29.0136 37.6286 28.6788 37.682 28.3421 37.682C28.0897 37.682 27.8372 37.6514 27.5923 37.5927C27.2422 37.52 26.8827 37.4826 26.5248 37.4826C25.2595 37.4826 24.0359 37.9441 23.0857 38.7791C22.9064 38.9354 22.8027 39.1626 22.8027 39.4013C22.8027 39.5342 22.8349 39.6653 22.8964 39.7829L27.7923 49.1951C27.9196 49.4413 28.1627 49.607 28.4386 49.6354C28.4676 49.6382 28.4956 49.6398 28.524 49.6398C28.7712 49.6401 29.0058 49.5293 29.1628 49.338L32.9263 44.7485L38.8483 44.3041C39.2786 44.2723 39.6118 43.9134 39.6118 43.4816C39.6118 43.3487 39.5797 43.2176 39.5183 43.1L39.5179 43.1003Z" fill="#D9455F"/>
<path id="Vector_2" d="M27.5942 37.5937C27.2441 37.5204 26.8846 37.4829 26.5267 37.4829C25.2614 37.4829 24.0379 37.9444 23.0877 38.7795C22.9083 38.9358 22.8047 39.1629 22.8047 39.4017C22.8047 39.5346 22.8368 39.6656 22.8983 39.7833L27.7942 49.1954C27.9215 49.4416 28.1646 49.6073 28.4405 49.6357C28.4695 49.6385 28.4976 49.6401 28.526 49.6401C28.7731 49.6404 29.0077 49.5296 29.1647 49.3383L32.9283 44.7488L29.1922 37.5625C28.9129 37.6399 28.6233 37.6795 28.3328 37.6795C28.0844 37.6795 27.836 37.6501 27.5945 37.5934L27.5942 37.5937Z" fill="#003466"/>
<path id="Vector_3" d="M1.76156 43.1003L6.87159 33.2756C7.01358 33.002 7.29595 32.8303 7.60396 32.8303C7.81333 32.8303 8.0149 32.9099 8.16779 33.0531C8.79218 33.6423 9.26087 34.3797 9.52736 35.1963C9.9012 36.3224 10.8061 37.1946 11.946 37.525C12.2662 37.6286 12.601 37.682 12.9377 37.682C13.1901 37.682 13.4426 37.6514 13.6875 37.5927C14.0377 37.52 14.3971 37.4826 14.755 37.4826C16.0204 37.4826 17.2438 37.9441 18.194 38.7791C18.3735 38.9354 18.4771 39.1626 18.4771 39.4013C18.4771 39.5342 18.4449 39.6653 18.3834 39.7829L13.4875 49.1951C13.3602 49.4413 13.1171 49.607 12.8412 49.6354C12.8122 49.6382 12.7842 49.6398 12.7557 49.6398C12.5086 49.6401 12.274 49.5293 12.117 49.338L8.35347 44.7485L2.43154 44.3041C2.00121 44.2723 1.66797 43.9134 1.66797 43.4816C1.66797 43.3487 1.70008 43.2176 1.76156 43.1V43.1003Z" fill="#D9455F"/>
<path id="Vector_4" d="M13.6873 37.5937C14.0377 37.5204 14.3972 37.4829 14.7551 37.4829C16.0204 37.4829 17.2439 37.9444 18.1941 38.7795C18.3736 38.9358 18.4771 39.1629 18.4771 39.4017C18.4771 39.5346 18.445 39.6656 18.3835 39.7833L13.4876 49.1954C13.3603 49.4416 13.1172 49.6073 12.8413 49.6357C12.8123 49.6385 12.7842 49.6401 12.7558 49.6401C12.5087 49.6404 12.2741 49.5296 12.1171 49.3383L8.35352 44.7488L12.0887 37.5625C12.3683 37.6399 12.6582 37.6795 12.9487 37.6795C13.1973 37.6795 13.4461 37.6505 13.6879 37.5934L13.6873 37.5937Z" fill="#003466"/>
<path id="Vector_5" d="M41.2801 20.7439C41.2801 20.7383 41.2801 20.7317 41.2801 20.7261C41.2801 19.4427 40.8052 18.2029 39.9483 17.2481C39.3601 16.5884 39.0344 15.7338 39.0344 14.8494V14.8491C39.0353 14.6001 39.0612 14.3517 39.1093 14.1077C39.181 13.7601 39.2206 13.4037 39.2241 13.0493C39.2225 10.7807 37.764 8.76862 35.6093 8.06183C34.5229 7.71207 33.6716 6.86082 33.3221 5.77491C33.1327 5.19261 32.8394 4.64719 32.4596 4.16692C31.4623 2.90627 29.9427 2.16644 28.3344 2.15927C27.9771 2.163 27.6183 2.20234 27.2685 2.275C27.0304 2.32305 26.7867 2.34805 26.5433 2.34805C25.6584 2.34805 24.803 2.02445 24.1402 1.43877C23.1779 0.579089 21.93 0.103516 20.6397 0.103516C19.37 0.103516 18.1412 0.564408 17.1848 1.39817C17.1536 1.4191 17.1234 1.4425 17.0946 1.46744C16.4528 2.03942 15.6208 2.35649 14.7606 2.35649C14.5056 2.35649 14.2504 2.32804 14.002 2.27345C13.6544 2.20199 13.2993 2.163 12.9451 2.15956C11.3377 2.16644 9.82001 2.90472 8.82206 4.16473C8.44203 4.64501 8.1487 5.19135 7.95894 5.77457C7.60856 6.86203 6.7545 7.71425 5.66732 8.06309C3.51362 8.77114 2.05667 10.7822 2.05541 13.0493C2.05885 13.4037 2.09785 13.7582 2.16902 14.1052C2.21799 14.3489 2.24391 14.5994 2.24546 14.8488C2.24546 14.8494 2.24546 14.8503 2.24546 14.8507C2.24546 15.7325 1.92122 16.5847 1.33617 17.2434C0.475861 18.2064 0 19.4523 0 20.7436C0 22.0326 0.4746 23.277 1.3321 24.2391C1.9203 24.8994 2.24546 25.7531 2.24546 26.6374V26.6384C2.24454 26.8874 2.21862 27.1358 2.17056 27.3798C2.09882 27.7271 2.0592 28.0834 2.05576 28.4379C2.0573 30.7068 3.51735 32.7198 5.6726 33.4259C6.18688 33.5925 6.65586 33.8784 7.03968 34.2594C7.46221 34.66 7.77922 35.1615 7.95894 35.7157C8.49754 37.3471 9.80378 38.613 11.4513 39.1001C11.9297 39.2542 12.4315 39.3338 12.9342 39.3338C13.293 39.3338 13.6528 39.2933 14.0023 39.2143C14.2466 39.1654 14.4959 39.1397 14.7453 39.1382C15.6146 39.1394 16.4543 39.4552 17.1099 40.0259C17.1227 40.0372 17.1358 40.0484 17.1496 40.059L17.1552 40.0631C18.1156 40.9137 19.356 41.3843 20.6397 41.3843C21.9288 41.3843 23.1732 40.9099 24.1359 40.0524C24.7959 39.4639 25.6499 39.1382 26.5342 39.1382H26.5346C26.7839 39.1397 27.0338 39.1653 27.2778 39.214C27.6248 39.2855 27.9799 39.3245 28.3344 39.3279C30.6027 39.326 32.6141 37.8675 33.3209 35.7129C33.671 34.6257 34.525 33.7735 35.6122 33.4247C37.7662 32.7167 39.2231 30.7055 39.2244 28.4386C39.221 28.0838 39.182 27.7293 39.1108 27.3823C39.0618 27.1386 39.0359 26.888 39.0344 26.6387C39.0346 26.6384 39.0346 26.6381 39.0346 26.6381C39.0346 25.7541 39.3595 24.9006 39.9474 24.2409C40.8049 23.2852 41.2801 22.0442 41.2801 20.7592C41.2801 20.7548 41.2801 20.7482 41.2801 20.7439Z" fill="#B3B3B3"/>
<path id="Vector_6" d="M20.6379 35.1679C12.4593 35.1676 5.82617 28.5345 5.82617 20.3556C5.82617 12.1763 12.4593 5.54321 20.6382 5.54321C28.8175 5.54321 35.4506 12.1763 35.4506 20.3556C35.4434 28.5304 28.8134 35.1604 20.6376 35.1676L20.6379 35.1679ZM20.6379 7.19421C13.3711 7.19421 7.47718 13.0881 7.47718 20.3556C7.47718 27.6227 13.3711 33.5166 20.6382 33.5166C27.9057 33.5166 33.7995 27.6227 33.7995 20.3556C33.7927 13.0915 27.9023 7.2011 20.6379 7.19451V7.19421Z" fill="#E6E6E6"/>
</g>
</g>
</svg>
