<svg width="42" height="51" viewBox="0 0 42 51" fill="none" xmlns="http://www.w3.org/2000/svg">
<g id="&#208;&#161;&#208;&#187;&#208;&#190;&#208;&#185;_x0020_1">
<g id="_1813251910560">
<path id="Vector" d="M39.5179 43.6784L34.4079 33.8537C34.2662 33.5801 33.9839 33.4084 33.6759 33.4084C33.4665 33.4084 33.2649 33.488 33.112 33.6312C32.4876 34.2204 32.0189 34.9578 31.7525 35.7744C31.3786 36.9005 30.4737 37.7727 29.3338 38.1031C29.0136 38.2067 28.6788 38.2601 28.3421 38.2601C28.0897 38.2601 27.8372 38.2295 27.5923 38.1708C27.2422 38.0981 26.8827 38.0607 26.5248 38.0607C25.2595 38.0607 24.0359 38.5222 23.0857 39.3572C22.9064 39.5136 22.8027 39.7408 22.8027 39.9794C22.8027 40.1124 22.8349 40.2435 22.8964 40.3611L27.7923 49.7732C27.9196 50.0194 28.1627 50.1851 28.4386 50.2135C28.4676 50.2164 28.4956 50.2179 28.524 50.2179C28.7712 50.2182 29.0058 50.1075 29.1628 49.9161L32.9263 45.3266L38.8483 44.8823C39.2786 44.8504 39.6118 44.4916 39.6118 44.0597C39.6118 43.9268 39.5797 43.7957 39.5183 43.6781L39.5179 43.6784Z" fill="#D9455F"/>
<path id="Vector_2" d="M27.5942 38.1718C27.2441 38.0985 26.8846 38.061 26.5267 38.061C25.2614 38.061 24.0379 38.5226 23.0877 39.3576C22.9083 39.5139 22.8047 39.7411 22.8047 39.9798C22.8047 40.1127 22.8368 40.2438 22.8983 40.3614L27.7942 49.7735C27.9215 50.0197 28.1646 50.1855 28.4405 50.2138C28.4695 50.2167 28.4976 50.2182 28.526 50.2182C28.7731 50.2185 29.0077 50.1078 29.1647 49.9164L32.9283 45.327L29.1922 38.1406C28.9129 38.218 28.6233 38.2576 28.3328 38.2576C28.0844 38.2576 27.836 38.2283 27.5945 38.1715L27.5942 38.1718Z" fill="#003466"/>
<path id="Vector_3" d="M1.76156 43.6784L6.87159 33.8537C7.01358 33.5801 7.29595 33.4084 7.60396 33.4084C7.81333 33.4084 8.0149 33.488 8.16779 33.6312C8.79218 34.2204 9.26087 34.9578 9.52736 35.7744C9.9012 36.9005 10.8061 37.7727 11.946 38.1031C12.2662 38.2067 12.601 38.2601 12.9377 38.2601C13.1901 38.2601 13.4426 38.2295 13.6875 38.1708C14.0377 38.0981 14.3971 38.0607 14.755 38.0607C16.0204 38.0607 17.2438 38.5222 18.194 39.3572C18.3735 39.5136 18.4771 39.7408 18.4771 39.9794C18.4771 40.1124 18.4449 40.2435 18.3834 40.3611L13.4875 49.7732C13.3602 50.0194 13.1171 50.1851 12.8412 50.2135C12.8122 50.2164 12.7842 50.2179 12.7557 50.2179C12.5086 50.2182 12.274 50.1075 12.117 49.9161L8.35347 45.3266L2.43154 44.8823C2.00121 44.8504 1.66797 44.4916 1.66797 44.0597C1.66797 43.9268 1.70008 43.7957 1.76156 43.6781V43.6784Z" fill="#D9455F"/>
<path id="Vector_4" d="M13.6873 38.1718C14.0377 38.0985 14.3972 38.061 14.7551 38.061C16.0204 38.061 17.2439 38.5226 18.1941 39.3576C18.3736 39.5139 18.4771 39.7411 18.4771 39.9798C18.4771 40.1127 18.445 40.2438 18.3835 40.3614L13.4876 49.7735C13.3603 50.0197 13.1172 50.1855 12.8413 50.2138C12.8123 50.2167 12.7842 50.2182 12.7558 50.2182C12.5087 50.2185 12.2741 50.1078 12.1171 49.9164L8.35352 45.327L12.0887 38.1406C12.3683 38.218 12.6582 38.2576 12.9487 38.2576C13.1973 38.2576 13.4461 38.2286 13.6879 38.1715L13.6873 38.1718Z" fill="#003466"/>
<path id="Vector_5" d="M41.2801 21.322C41.2801 21.3164 41.2801 21.3099 41.2801 21.3042C41.2801 20.0208 40.8052 18.781 39.9483 17.8262C39.3601 17.1666 39.0344 16.3119 39.0344 15.4275V15.4272C39.0353 15.1782 39.0612 14.9298 39.1093 14.6858C39.181 14.3382 39.2206 13.9818 39.2241 13.6274C39.2225 11.3588 37.764 9.34675 35.6093 8.63996C34.5229 8.2902 33.6716 7.43895 33.3221 6.35304C33.1327 5.77074 32.8394 5.22532 32.4596 4.74504C31.4623 3.48439 29.9427 2.74457 28.3344 2.7374C27.9771 2.74112 27.6183 2.78046 27.2685 2.85312C27.0304 2.90118 26.7867 2.92618 26.5433 2.92618C25.6584 2.92618 24.803 2.60258 24.1402 2.0169C23.1779 1.15722 21.93 0.681641 20.6397 0.681641C19.37 0.681641 18.1412 1.14254 17.1848 1.9763C17.1536 1.99723 17.1234 2.02063 17.0946 2.04557C16.4528 2.61754 15.6208 2.93461 14.7606 2.93461C14.5056 2.93461 14.2504 2.90617 14.002 2.85157C13.6544 2.78012 13.2993 2.74113 12.9451 2.73768C11.3377 2.74457 9.82001 3.48284 8.82206 4.74286C8.44203 5.22314 8.1487 5.76947 7.95894 6.35269C7.60856 7.44015 6.75449 8.29238 5.66732 8.64122C3.51362 9.34927 2.05667 11.3604 2.05541 13.6274C2.05885 13.9818 2.09785 14.3363 2.16902 14.6833C2.21799 14.927 2.24391 15.1776 2.24546 15.4269C2.24546 15.4275 2.24546 15.4285 2.24546 15.4288C2.24546 16.3106 1.92122 17.1628 1.33617 17.8215C0.475861 18.7845 0 20.0305 0 21.3217C0 22.6108 0.4746 23.8552 1.3321 24.8172C1.9203 25.4775 2.24546 26.3312 2.24546 27.2156V27.2165C2.24454 27.4655 2.21862 27.7139 2.17056 27.9579C2.09882 28.3052 2.0592 28.6616 2.05576 29.0161C2.0573 31.2849 3.51734 33.2979 5.6726 34.0041C6.18688 34.1707 6.65586 34.4565 7.03968 34.8375C7.46221 35.2382 7.77922 35.7397 7.95894 36.2938C8.49754 37.9252 9.80378 39.1911 11.4513 39.6782C11.9297 39.8324 12.4315 39.912 12.9342 39.912C13.293 39.912 13.6528 39.8714 14.0023 39.7924C14.2466 39.7435 14.4959 39.7178 14.7453 39.7163C15.6146 39.7176 16.4543 40.0334 17.1099 40.6041C17.1227 40.6153 17.1358 40.6266 17.1496 40.6372L17.1552 40.6412C18.1156 41.4919 19.356 41.9624 20.6397 41.9624C21.9288 41.9624 23.1732 41.4881 24.1359 40.6306C24.7959 40.0421 25.6499 39.7163 26.5342 39.7163H26.5345C26.7839 39.7178 27.0338 39.7435 27.2778 39.7922C27.6248 39.8636 27.9799 39.9026 28.3344 39.9061C30.6027 39.9042 32.6141 38.4457 33.3209 36.291C33.671 35.2039 34.525 34.3516 35.6122 34.0028C37.7662 33.2948 39.2231 31.2837 39.2244 29.0167C39.221 28.6619 39.182 28.3074 39.1108 27.9604C39.0618 27.7167 39.0359 27.4661 39.0344 27.2168C39.0346 27.2165 39.0346 27.2162 39.0346 27.2162C39.0346 26.3322 39.3595 25.4787 39.9474 24.8191C40.8049 23.8633 41.2801 22.6223 41.2801 21.3373C41.2801 21.333 41.2801 21.3264 41.2801 21.322Z" fill="#FF9452"/>
<path id="Vector_6" d="M20.6379 35.746C12.4593 35.7457 5.82617 29.1126 5.82617 20.9337C5.82617 12.7544 12.4593 6.12134 20.6382 6.12134C28.8175 6.12134 35.4506 12.7544 35.4506 20.9337C35.4434 29.1086 28.8134 35.7386 20.6376 35.7457L20.6379 35.746ZM20.6379 7.77234C13.3711 7.77234 7.47717 13.6662 7.47717 20.9337C7.47717 28.2008 13.3711 34.0947 20.6382 34.0947C27.9057 34.0947 33.7995 28.2008 33.7995 20.9337C33.7927 13.6696 27.9023 7.77922 20.6379 7.77263V7.77234Z" fill="#FFD296"/>
</g>
</g>
</svg>
