<svg width="43" height="50" viewBox="0 0 43 50" fill="none" xmlns="http://www.w3.org/2000/svg">
<g id="&#208;&#161;&#208;&#187;&#208;&#190;&#208;&#185;_x0020_1">
<g id="_1813734157408">
<path id="Vector" d="M40.2718 42.9968L35.1618 33.1721C35.0201 32.8984 34.7378 32.7268 34.4298 32.7268C34.2204 32.7268 34.0188 32.8064 33.8659 32.9496C33.2415 33.5388 32.7728 34.2761 32.5064 35.0928C32.1325 36.2189 31.2276 37.091 30.0877 37.4215C29.7675 37.5251 29.4327 37.5784 29.096 37.5784C28.8436 37.5784 28.5911 37.5479 28.3462 37.4892C27.9961 37.4165 27.6366 37.379 27.2787 37.379C26.0134 37.379 24.7898 37.8406 23.8396 38.6756C23.6603 38.8319 23.5566 39.0591 23.5566 39.2978C23.5566 39.4307 23.5888 39.5618 23.6503 39.6794L28.5462 49.0916C28.6735 49.3378 28.9166 49.5035 29.1925 49.5319C29.2215 49.5347 29.2495 49.5363 29.2779 49.5363C29.5251 49.5365 29.7597 49.4258 29.9167 49.2345L33.6802 44.6449L39.6022 44.2006C40.0325 44.1688 40.3657 43.8099 40.3657 43.3781C40.3657 43.2452 40.3336 43.1141 40.2722 42.9965L40.2718 42.9968Z" fill="#D9455F"/>
<path id="Vector_2" d="M28.3481 37.4902C27.998 37.4168 27.6385 37.3794 27.2806 37.3794C26.0153 37.3794 24.7918 37.8409 23.8416 38.6759C23.6622 38.8323 23.5586 39.0594 23.5586 39.2981C23.5586 39.4311 23.5907 39.5621 23.6522 39.6798L28.5481 49.0919C28.6754 49.3381 28.9185 49.5038 29.1944 49.5322C29.2234 49.535 29.2515 49.5366 29.2799 49.5366C29.527 49.5369 29.7616 49.4261 29.9186 49.2348L33.6822 44.6453L29.9461 37.4589C29.6668 37.5364 29.3773 37.576 29.0867 37.576C28.8383 37.576 28.5899 37.5466 28.3484 37.4898L28.3481 37.4902Z" fill="#003466"/>
<path id="Vector_3" d="M2.51546 42.9968L7.62549 33.1721C7.76748 32.8984 8.04986 32.7268 8.35786 32.7268C8.56724 32.7268 8.76881 32.8064 8.9217 32.9496C9.54608 33.5388 10.0148 34.2761 10.2813 35.0928C10.6551 36.2189 11.56 37.091 12.6999 37.4215C13.0201 37.5251 13.3549 37.5784 13.6916 37.5784C13.944 37.5784 14.1965 37.5479 14.4414 37.4892C14.7916 37.4165 15.151 37.379 15.5089 37.379C16.7743 37.379 17.9977 37.8406 18.9479 38.6756C19.1274 38.8319 19.231 39.0591 19.231 39.2978C19.231 39.4307 19.1988 39.5618 19.1373 39.6794L14.2414 49.0916C14.1141 49.3378 13.871 49.5035 13.5951 49.5319C13.5661 49.5347 13.5381 49.5363 13.5096 49.5363C13.2625 49.5365 13.0279 49.4258 12.8709 49.2345L9.10738 44.6449L3.18544 44.2006C2.75511 44.1688 2.42188 43.8099 2.42188 43.3781C2.42188 43.2452 2.45399 43.1141 2.51546 42.9965V42.9968Z" fill="#D9455F"/>
<path id="Vector_4" d="M14.4412 37.4902C14.7916 37.4168 15.1511 37.3794 15.509 37.3794C16.7743 37.3794 17.9978 37.8409 18.948 38.6759C19.1275 38.8323 19.231 39.0594 19.231 39.2981C19.231 39.4311 19.1989 39.5621 19.1374 39.6798L14.2415 49.0919C14.1142 49.3381 13.8711 49.5038 13.5952 49.5322C13.5662 49.535 13.5381 49.5366 13.5097 49.5366C13.2626 49.5369 13.028 49.4261 12.871 49.2348L9.10742 44.6453L12.8426 37.4589C13.1222 37.5364 13.4121 37.576 13.7026 37.576C13.9513 37.576 14.2 37.547 14.4418 37.4898L14.4412 37.4902Z" fill="#003466"/>
<path id="Vector_5" d="M42.034 20.6404C42.034 20.6347 42.034 20.6282 42.034 20.6226C42.034 19.3392 41.5591 18.0994 40.7023 17.1446C40.1141 16.4849 39.7883 15.6302 39.7883 14.7459V14.7456C39.7892 14.4966 39.8151 14.2482 39.8632 14.0042C39.9349 13.6565 39.9745 13.3002 39.978 12.9457C39.9764 10.6772 38.5179 8.66511 36.3633 7.95831C35.2768 7.60856 34.4255 6.75731 34.076 5.67139C33.8866 5.0891 33.5933 4.54368 33.2135 4.0634C32.2162 2.80275 30.6966 2.06292 29.0883 2.05576C28.731 2.05948 28.3722 2.09882 28.0224 2.17148C27.7843 2.21954 27.5406 2.24454 27.2972 2.24454C26.4123 2.24454 25.5569 1.92094 24.8941 1.33526C23.9318 0.475576 22.6839 0 21.3936 0C20.1239 0 18.8951 0.460895 17.9387 1.29466C17.9075 1.31559 17.8773 1.33898 17.8485 1.36393C17.2067 1.9359 16.3747 2.25297 15.5145 2.25297C15.2595 2.25297 15.0043 2.22453 14.7559 2.16993C14.4083 2.09848 14.0532 2.05949 13.699 2.05604C12.0916 2.06293 10.5739 2.8012 9.57597 4.06122C9.19594 4.5415 8.90261 5.08784 8.71285 5.67105C8.36246 6.75851 7.5084 7.61074 6.42123 7.95957C4.26753 8.66763 2.81058 10.6787 2.80932 12.9457C2.81276 13.3002 2.85175 13.6547 2.92292 14.0017C2.9719 14.2454 2.99782 14.4959 2.99936 14.7453C2.99936 14.7459 2.99936 14.7468 2.99936 14.7472C2.99936 15.629 2.67513 16.4811 2.09008 17.1399C1.22977 18.1028 0.753906 19.3488 0.753906 20.6401C0.753906 21.9291 1.22851 23.1735 2.08601 24.1356C2.67421 24.7959 2.99936 25.6496 2.99936 26.5339V26.5348C2.99845 26.7839 2.97253 27.0323 2.92447 27.2763C2.85273 27.6236 2.8131 27.9799 2.80966 28.3344C2.81121 30.6033 4.27125 32.6163 6.42651 33.3224C6.94079 33.489 7.40977 33.7749 7.79359 34.1559C8.21611 34.5565 8.53312 35.058 8.71285 35.6122C9.25145 37.2435 10.5577 38.5095 12.2052 38.9966C12.6836 39.1507 13.1854 39.2303 13.6881 39.2303C14.0469 39.2303 14.4067 39.1898 14.7562 39.1108C15.0005 39.0618 15.2498 39.0362 15.4992 39.0346C16.3685 39.0359 17.2082 39.3517 17.8639 39.9224C17.8766 39.9337 17.8897 39.9449 17.9035 39.9555L17.9091 39.9595C18.8695 40.8102 20.1099 41.2807 21.3936 41.2807C22.6827 41.2807 23.9272 40.8064 24.8898 39.9489C25.5498 39.3604 26.4038 39.0346 27.2881 39.0346H27.2885C27.5378 39.0362 27.7877 39.0618 28.0317 39.1105C28.3787 39.182 28.7338 39.221 29.0883 39.2244C31.3566 39.2225 33.368 37.764 34.0748 35.6093C34.4249 34.5222 35.2789 33.67 36.3661 33.3212C38.5201 32.6132 39.9771 30.602 39.9783 28.3351C39.9749 27.9803 39.9359 27.6257 39.8647 27.2788C39.8157 27.0351 39.7898 26.7845 39.7883 26.5352C39.7886 26.5348 39.7886 26.5346 39.7886 26.5346C39.7886 25.6506 40.1134 24.7971 40.7013 24.1374C41.5588 23.1817 42.034 21.9406 42.034 20.6557C42.034 20.6513 42.034 20.6447 42.034 20.6404Z" fill="#FFBD69"/>
<path id="Vector_6" d="M21.3918 35.0644C13.2132 35.0641 6.58008 28.431 6.58008 20.2521C6.58008 12.0728 13.2132 5.4397 21.3922 5.4397C29.5714 5.4397 36.2045 12.0728 36.2045 20.2521C36.1973 28.4269 29.5674 35.0569 21.3915 35.0641L21.3918 35.0644ZM21.3918 7.0907C14.125 7.0907 8.23109 12.9845 8.23109 20.2521C8.23109 27.5192 14.125 33.4131 21.3922 33.4131C28.6596 33.4131 34.5535 27.5192 34.5535 20.2521C34.5466 12.988 28.6562 7.09758 21.3918 7.09099V7.0907Z" fill="#F37121"/>
</g>
</g>
</svg>
